<svg xmlns="http://www.w3.org/2000/svg" viewBox="0 0 97.835373 87.069901" width="97.835" height="87.07">
    <path d="M88.608 43.386a2.29 2.29 0 0 0-.523-1.688L54.133.834a2.315 2.315 0 0 0-3.256-.302l-6.685 5.56c-13.468-2.367-24.385 1.03-26.057 8.193-.782 3.392.74 6.97 3.922 10.195L.834 42.117a2.31 2.31 0 0 0-.3 3.254l33.95 40.865c.397.478.964.765 1.576.823.064.006.14.012.203.012.547 0 1.06-.188 1.48-.53l50.044-41.586c.467-.397.77-.96.82-1.568zM22.635 15.328c.804-3.43 7.467-5.982 16.713-5.22l-13.723 11.41c-2.272-2.19-3.397-4.402-2.99-6.19zm59.624 28.21l-75.963.046 19.38-16.103c3.89 2.723 9.022 4.993 14.945 6.364 3.718.87 7.406 1.29 10.832 1.29 3.44 0 6.567-.467 9.27-1.303.418.317.87.598 1.4.758a4.592 4.592 0 0 0 5.725-3.052 4.582 4.582 0 0 0-3.057-5.725 4.586 4.586 0 0 0-5.72 3.055c-.077.23-.033.46-.064.693-4.555 1.306-10.908 1.28-17.347-.21-4.972-1.156-9.116-2.945-12.29-4.937L52.055 5.564l31.004 37.31-.8.666zm6.92.442s-8.66 19.28-8.66 24.057c0 4.78 3.88 8.657 8.66 8.657a8.654 8.654 0 0 0 8.655-8.657c0-4.777-8.655-24.057-8.655-24.057z"/>
</svg>
