<?xml version="1.0" standalone="no"?>
<!DOCTYPE svg PUBLIC "-//W3C//DTD SVG 1.1//EN" "http://www.w3.org/Graphics/SVG/1.1/DTD/svg11.dtd">
<svg xmlns="http://www.w3.org/2000/svg" version="1.1"
   width="744.09448819"
   height="500">
  <title>puzzle path</title>
  <desc>testing</desc>

<g transform="translate(0,100) scale(0.4)">
  <path d="m 0,0
    c 100,0 270,-30 230,50 
    c -40,70 0,140 80,140 
    c 80,0 120,-70 80,-140 
    c -40,-80 130,-50 230,-50

    c 100,0 270,-30 230,50 
    c -40,70 0,140 80,140 
    c 80,0 120,-70 80,-140 
    c -40,-80 130,-50 230,-50"
      fill="none"
      stroke="red"
      stroke-width="3"
    />
  <g transform="translate(0,0)">
    <circle cx="0" cy="0" r="10" fill="black" />
    <g transform="translate(0,0)">
      <circle cx="100" cy="0" r="10" fill="red" />
      <circle cx="270" cy="-30" r="10" fill="blue" />
      <circle cx="230" cy="50" r="10" fill="black" />

      <g transform="translate(230,50)">
        <circle cx="-40" cy="70" r="10" fill="red" />
        <circle cx="0" cy="140" r="10" fill="blue" />
        <circle cx="80" cy="140" r="10" fill="black" />

        <g transform="translate(80,140)">
          <circle cx="80" cy="0" r="10" fill="red" />
          <circle cx="120" cy="-70" r="10" fill="blue" />
          <circle cx="80" cy="-140" r="10" fill="black" />

          <g transform="translate(80,-140)">
            <circle cx="-40" cy="-80" r="10" fill="red" />
            <circle cx="130" cy="-50" r="10" fill="blue" />
            <circle cx="230" cy="-50" r="10" fill="black" />

            <g transform="translate(230,-50)">
              <circle cx="0" cy="0" r="10" fill="black" />
              <g transform="translate(0,0)">
                <circle cx="100" cy="0" r="10" fill="red" />
                <circle cx="270" cy="-30" r="10" fill="blue" />
                <circle cx="230" cy="50" r="10" fill="black" />

                <g transform="translate(230,50)">
                  <circle cx="-40" cy="70" r="10" fill="red" />
                  <circle cx="0" cy="140" r="10" fill="blue" />
                  <circle cx="80" cy="140" r="10" fill="black" />

                  <g transform="translate(80,140)">
                    <circle cx="80" cy="0" r="10" fill="red" />
                    <circle cx="120" cy="-70" r="10" fill="blue" />
                    <circle cx="80" cy="-140" r="10" fill="black" />

                    <g transform="translate(80,-140)">
                      <circle cx="-40" cy="-80" r="10" fill="red" />
                      <circle cx="130" cy="-50" r="10" fill="blue" />
                      <circle cx="230" cy="-50" r="10" fill="black" />
                    </g>
                  </g>
                </g>
              </g>
            </g>
          </g>
        </g>
      </g>
    </g>
  </g>
</g>


</svg>
