<svg xmlns="http://www.w3.org/2000/svg" viewBox="0 0 88 88" width="88" height="88">
    <title>
        Exit Full Screen
    </title>
    <path d="M79.996 0A8.005 8.005 0 0 1 88 8.004v71.992A8.005 8.005 0 0 1 79.996 88H8.004A8.005 8.005 0 0 1 0 79.996V8.004A8.005 8.005 0 0 1 8.004 0h71.992zM8 8h72v72H8V8zm61.218 39.177L47 47l.177 22.218 8.073.06-.077-8.448 12.94 12.94 5.657-5.657-12.94-12.94 8.447.077-.06-8.073zM18.55 40.593l22.22.177-.177-22.22-8.073-.058.076 8.447L19.656 14 14 19.657l12.94 12.94-8.448-.077.06 8.073z" fill="#000" fill-rule="evenodd"/>
</svg>
