<?xml version="1.0" encoding="UTF-8" standalone="no"?>
<svg xmlns="http://www.w3.org/2000/svg" xmlns:xlink="http://www.w3.org/1999/xlink">
  <defs>

  <symbol viewBox="0 0 88 88" id="arrow-left-circle-sprite">
  <path fill="currentColor" d="M0 44c0 24.3 19.7 44 44 44s44-19.7 44-44S68.3 0 44 0 0 19.7 0 44zm8 0c0 19.882 16.118 36 36 36s36-16.118 36-36S63.882 8 44 8 8 24.118 8 44zm41 14L35 44l14-14v28z" fill-rule="evenodd"/>
</symbol>

  <symbol viewBox="0 0 97.835373 87.069901" id="paint-can-sprite">
  <path fill="currentColor" d="M88.608 43.386a2.29 2.29 0 0 0-.523-1.688L54.133.834a2.315 2.315 0 0 0-3.256-.302l-6.685 5.56c-13.468-2.367-24.385 1.03-26.057 8.193-.782 3.392.74 6.97 3.922 10.195L.834 42.117a2.31 2.31 0 0 0-.3 3.254l33.95 40.865c.397.478.964.765 1.576.823.064.006.14.012.203.012.547 0 1.06-.188 1.48-.53l50.044-41.586c.467-.397.77-.96.82-1.568zM22.635 15.328c.804-3.43 7.467-5.982 16.713-5.22l-13.723 11.41c-2.272-2.19-3.397-4.402-2.99-6.19zm59.624 28.21l-75.963.046 19.38-16.103c3.89 2.723 9.022 4.993 14.945 6.364 3.718.87 7.406 1.29 10.832 1.29 3.44 0 6.567-.467 9.27-1.303.418.317.87.598 1.4.758a4.592 4.592 0 0 0 5.725-3.052 4.582 4.582 0 0 0-3.057-5.725 4.586 4.586 0 0 0-5.72 3.055c-.077.23-.033.46-.064.693-4.555 1.306-10.908 1.28-17.347-.21-4.972-1.156-9.116-2.945-12.29-4.937L52.055 5.564l31.004 37.31-.8.666zm6.92.442s-8.66 19.28-8.66 24.057c0 4.78 3.88 8.657 8.66 8.657a8.654 8.654 0 0 0 8.655-8.657c0-4.777-8.655-24.057-8.655-24.057z">
  </path>
  </symbol>

  <symbol viewBox="0 0 88 72" id="image-sprite">
  <path fill="currentColor" d="M0 7.998C0 3.58 3.586 0 8.004 0h71.992C84.416 0 88 3.583 88 7.998v56.004C88 68.42 84.414 72 79.996 72H8.004C3.584 72 0 68.417 0 64.002V7.998zM52 64h-8L26 46 8 64V8h72v56L53 36 38.764 50.764 52 64zM24 32a8 8 0 1 0 0-16 8 8 0 0 0 0 16z" fill-rule="evenodd"/>
  </symbol>

  <symbol viewBox="0 0 88 88" id="full-screen-sprite">
  <path fill="currentColor" d="M79.996 0A8.005 8.005 0 0 1 88 8.004v71.992A8.005 8.005 0 0 1 79.996 88H8.004A8.005 8.005 0 0 1 0 79.996V8.004A8.005 8.005 0 0 1 8.004 0h71.992zM8 8h72v72H8V8zm43.55 65.593l22.22.177-.177-22.22-8.073-.058.076 8.447L52.656 47 47 52.657l12.94 12.94-8.448-.077.06 8.073zM36.22 14.177L14 14l.177 22.218 8.073.06-.077-8.448 12.94 12.94 5.657-5.657-12.94-12.94 8.447.077-.06-8.073z" fill-rule="evenodd"/>
  </symbol>

  <symbol viewBox="0 0 88 88" id="minimize-sprite">
  <path fill="currentColor" d="M79.996 0A8.005 8.005 0 0 1 88 8.004v71.992A8.005 8.005 0 0 1 79.996 88H8.004A8.005 8.005 0 0 1 0 79.996V8.004A8.005 8.005 0 0 1 8.004 0h71.992zM8 8h72v72H8V8zm61.218 39.177L47 47l.177 22.218 8.073.06-.077-8.448 12.94 12.94 5.657-5.657-12.94-12.94 8.447.077-.06-8.073zM18.55 40.593l22.22.177-.177-22.22-8.073-.058.076 8.447L19.656 14 14 19.657l12.94 12.94-8.448-.077.06 8.073z" fill-rule="evenodd"/>
  </symbol>

  <symbol viewBox="0 0 88 88" id="info-circle-sprite"><path fill="currentColor" d="M44 88c24.3 0 44-19.7 44-44S68.3 0 44 0 0 19.7 0 44s19.7 44 44 44zm0-8c19.882 0 36-16.118 36-36S63.882 8 44 8 8 24.118 8 44s16.118 36 36 36zm0-42h4v20h3v4H37v-4h3V42h-3v-4h7zm-4-16h8v8h-8v-8z" fill-rule="evenodd"/></symbol>


<symbol id="exit" viewBox="0 0 20 20"><g stroke="none" stroke-width="1" fill="none" fill-rule="evenodd"><g transform="translate(-110.000000, -50.000000)" fill="currentColor"><g transform="translate(20.000000, 50.000000)"><path d="M92,17.0024554 C92,17.553384 92.4446309,18 93.0008717,18 L106.999128,18 C107.551894,18 108,17.5536886 108,17.0024554 L108,9.99754465 C108,9.44661595 107.556135,9 107,9 C106.447715,9 106,9.43788135 106,10.0029293 L106,16 L94,16 L94,10.0029293 C94,9.44902676 93.5561352,9 93,9 C92.4477153,9 92,9.4463114 92,9.99754465 L92,17.0024554 Z M101,13 L101,6 L103.001043,6 C103.552752,6 103.686127,5.68612671 103.294088,5.29408795 L100,2 L96.7059121,5.29408795 C96.3160476,5.68395241 96.4426603,6 96.9989566,6 L99,6 L99,13 L101,13 Z" transform="translate(100.000000, 10.000000) rotate(-90.000000) translate(-100.000000, -10.000000) "/></g></g></g></symbol>


<symbol id="search-images" viewBox="0 0 65 65" ><path fill="currentColor" d="M56.807,30.456V10.291c0-3.653-2.972-6.625-6.625-6.625H7.131c-3.653,0-6.625,2.972-6.625,6.625v35.192  c0,3.653,2.972,6.625,6.625,6.625h25.604c2.772,5.464,8.434,9.226,14.969,9.226c9.258,0,16.79-7.532,16.79-16.79  C64.494,38.642,61.426,33.451,56.807,30.456z M7.131,49.108c-1.999,0-3.625-1.626-3.625-3.625V10.291  c0-1.999,1.626-3.625,3.625-3.625h43.051c1.999,0,3.625,1.626,3.625,3.625v18.628c-1.895-0.743-3.948-1.165-6.103-1.165  c-0.989,0-1.953,0.103-2.896,0.268l-4.89-3.975c-0.007-0.005-0.014-0.008-0.021-0.014c-0.042-0.033-0.087-0.059-0.132-0.087  c-0.041-0.026-0.08-0.054-0.123-0.075c-0.032-0.016-0.066-0.026-0.1-0.04c-0.058-0.024-0.115-0.049-0.175-0.066  c-0.022-0.006-0.046-0.007-0.069-0.013c-0.07-0.016-0.142-0.031-0.213-0.036c-0.028-0.002-0.058,0.001-0.086,0  c-0.066-0.001-0.133-0.003-0.199,0.005c-0.036,0.004-0.071,0.015-0.107,0.021c-0.06,0.011-0.119,0.021-0.177,0.04  c-0.033,0.011-0.065,0.027-0.099,0.041c-0.06,0.023-0.118,0.047-0.175,0.078c-0.006,0.004-0.013,0.005-0.019,0.009l-6.792,3.903  l-8.074-7.523c-0.008-0.008-0.02-0.01-0.028-0.017c-0.136-0.122-0.288-0.213-0.451-0.277c-0.02-0.008-0.039-0.016-0.059-0.023  c-0.163-0.056-0.331-0.082-0.502-0.08c-0.022,0-0.044,0-0.066,0.001c-0.167,0.009-0.332,0.048-0.49,0.114  c-0.023,0.009-0.045,0.018-0.068,0.029c-0.116,0.055-0.228,0.121-0.331,0.208L6.073,33.246c-0.631,0.536-0.708,1.483-0.171,2.114  c0.296,0.349,0.719,0.528,1.143,0.528c0.344,0,0.689-0.117,0.971-0.357l14.275-12.137l11.96,11.146  c-2.086,2.798-3.338,6.254-3.338,10.004c0,1.584,0.235,3.11,0.647,4.564H7.131z M36.25,32.302l-2.521-2.349l5.097-2.928l2.469,2.006  C39.414,29.812,37.715,30.931,36.25,32.302z M47.704,58.334c-7.604,0-13.79-6.187-13.79-13.79s6.187-13.79,13.79-13.79  s13.79,6.187,13.79,13.79S55.308,58.334,47.704,58.334z"/><path fill="currentColor" d="M11.871,20.932c3.488,0,6.326-2.838,6.326-6.326s-2.838-6.326-6.326-6.326s-6.326,2.838-6.326,6.326  S8.383,20.932,11.871,20.932z M11.871,11.279c1.834,0,3.326,1.492,3.326,3.326s-1.492,3.326-3.326,3.326s-3.326-1.492-3.326-3.326  S10.037,11.279,11.871,11.279z"/><path fill="currentColor" d="M50.872,46.169c0.831-1.242,1.277-2.7,1.277-4.228c0-2.036-0.794-3.951-2.234-5.392s-3.355-2.233-5.392-2.233  s-3.951,0.793-5.392,2.233s-2.233,3.354-2.233,5.392c0,2.036,0.793,3.951,2.233,5.392s3.354,2.233,5.392,2.233  c1.527,0,2.986-0.446,4.228-1.276l5.132,5.132c0.293,0.293,0.677,0.439,1.061,0.439s0.768-0.146,1.061-0.439  c0.586-0.586,0.586-1.535,0-2.121L50.872,46.169z M41.253,45.212c-0.874-0.874-1.354-2.035-1.354-3.271s0.481-2.396,1.354-3.271  c0.874-0.874,2.035-1.354,3.271-1.354s2.396,0.48,3.271,1.354s1.355,2.035,1.355,3.271s-0.481,2.396-1.355,3.271  c-0.874,0.873-2.035,1.354-3.271,1.354S42.127,46.085,41.253,45.212z"/></symbol>


<symbol id="happy-lock" viewBox="20 10 60 80"><path fill="currentColor" d="M50,11.562c-8.787,0-15.938,7.15-15.938,15.938v14.081c-4.151,0.103-7.5,3.521-7.5,7.729v29.506  c0,4.271,3.448,7.747,7.687,7.747h31.502c4.239,0,7.687-3.476,7.687-7.747V49.31c0-4.208-3.349-7.626-7.5-7.729V27.5  C65.938,18.713,58.787,11.562,50,11.562z M50,13.438c7.754,0,14.062,6.308,14.062,14.062v14.062h-5.625V27.5  c0-4.652-3.785-8.438-8.438-8.438s-8.438,3.785-8.438,8.438v14.062h-5.625V27.5C35.938,19.745,42.246,13.438,50,13.438z   M43.438,41.562V27.5c0-3.618,2.944-6.562,6.562-6.562s6.562,2.944,6.562,6.562v14.062H43.438z M71.562,49.31v29.506  c0,3.237-2.607,5.872-5.812,5.872H34.249c-3.204,0-5.812-2.635-5.812-5.872V49.31c0-3.237,2.607-5.872,5.812-5.872h31.502  C68.955,43.438,71.562,46.072,71.562,49.31z"/><ellipse fill="currentColor" cx="40.625" cy="65.938" rx="1.875" ry="2.812"/><ellipse fill="currentColor" cx="59.375" cy="65.938" rx="1.875" ry="2.812"/><path fill="currentColor" d="M59.375,70.625h-18.75c-0.586,0-1.137,0.274-1.492,0.74c-0.354,0.467-0.471,1.072-0.313,1.637  C38.898,73.287,40.869,80,50,80c9.133,0,11.102-6.713,11.182-6.998c0.156-0.564,0.041-1.17-0.315-1.637  C60.514,70.899,59.961,70.625,59.375,70.625z"/></symbol>

  </defs>
<!--
<use xlink:href="#exit"/>
<use xlink:href="#search-images"/>
<use xlink:href="#happy-lock"/>
-->
</svg>
