<?xml version="1.0" encoding="UTF-8" standalone="no"?>
<svg xmlns="http://www.w3.org/2000/svg" xmlns:xlink="http://www.w3.org/1999/xlink">
  <defs>

  <symbol viewBox="0 0 88 88" id="arrow-left-circle-sprite">
  <path fill="currentColor" d="M0 44c0 24.3 19.7 44 44 44s44-19.7 44-44S68.3 0 44 0 0 19.7 0 44zm8 0c0 19.882 16.118 36 36 36s36-16.118 36-36S63.882 8 44 8 8 24.118 8 44zm41 14L35 44l14-14v28z" fill-rule="evenodd"/>
</symbol>

  <symbol viewBox="0 0 97.835373 87.069901" id="paint-can-sprite">
  <path fill="currentColor" d="M88.608 43.386a2.29 2.29 0 0 0-.523-1.688L54.133.834a2.315 2.315 0 0 0-3.256-.302l-6.685 5.56c-13.468-2.367-24.385 1.03-26.057 8.193-.782 3.392.74 6.97 3.922 10.195L.834 42.117a2.31 2.31 0 0 0-.3 3.254l33.95 40.865c.397.478.964.765 1.576.823.064.006.14.012.203.012.547 0 1.06-.188 1.48-.53l50.044-41.586c.467-.397.77-.96.82-1.568zM22.635 15.328c.804-3.43 7.467-5.982 16.713-5.22l-13.723 11.41c-2.272-2.19-3.397-4.402-2.99-6.19zm59.624 28.21l-75.963.046 19.38-16.103c3.89 2.723 9.022 4.993 14.945 6.364 3.718.87 7.406 1.29 10.832 1.29 3.44 0 6.567-.467 9.27-1.303.418.317.87.598 1.4.758a4.592 4.592 0 0 0 5.725-3.052 4.582 4.582 0 0 0-3.057-5.725 4.586 4.586 0 0 0-5.72 3.055c-.077.23-.033.46-.064.693-4.555 1.306-10.908 1.28-17.347-.21-4.972-1.156-9.116-2.945-12.29-4.937L52.055 5.564l31.004 37.31-.8.666zm6.92.442s-8.66 19.28-8.66 24.057c0 4.78 3.88 8.657 8.66 8.657a8.654 8.654 0 0 0 8.655-8.657c0-4.777-8.655-24.057-8.655-24.057z">
  </path>
  </symbol>

  <symbol viewBox="0 0 88 72" id="image-sprite">
  <path fill="currentColor" d="M0 7.998C0 3.58 3.586 0 8.004 0h71.992C84.416 0 88 3.583 88 7.998v56.004C88 68.42 84.414 72 79.996 72H8.004C3.584 72 0 68.417 0 64.002V7.998zM52 64h-8L26 46 8 64V8h72v56L53 36 38.764 50.764 52 64zM24 32a8 8 0 1 0 0-16 8 8 0 0 0 0 16z" fill-rule="evenodd"/>
  </symbol>

  <symbol viewBox="0 0 88 88" id="full-screen-sprite">
  <path fill="currentColor" d="M79.996 0A8.005 8.005 0 0 1 88 8.004v71.992A8.005 8.005 0 0 1 79.996 88H8.004A8.005 8.005 0 0 1 0 79.996V8.004A8.005 8.005 0 0 1 8.004 0h71.992zM8 8h72v72H8V8zm43.55 65.593l22.22.177-.177-22.22-8.073-.058.076 8.447L52.656 47 47 52.657l12.94 12.94-8.448-.077.06 8.073zM36.22 14.177L14 14l.177 22.218 8.073.06-.077-8.448 12.94 12.94 5.657-5.657-12.94-12.94 8.447.077-.06-8.073z" fill-rule="evenodd"/>
  </symbol>

  <symbol viewBox="0 0 88 88" id="minimize-sprite">
  <path fill="currentColor" d="M79.996 0A8.005 8.005 0 0 1 88 8.004v71.992A8.005 8.005 0 0 1 79.996 88H8.004A8.005 8.005 0 0 1 0 79.996V8.004A8.005 8.005 0 0 1 8.004 0h71.992zM8 8h72v72H8V8zm61.218 39.177L47 47l.177 22.218 8.073.06-.077-8.448 12.94 12.94 5.657-5.657-12.94-12.94 8.447.077-.06-8.073zM18.55 40.593l22.22.177-.177-22.22-8.073-.058.076 8.447L19.656 14 14 19.657l12.94 12.94-8.448-.077.06 8.073z" fill-rule="evenodd"/>
  </symbol>

  <symbol viewBox="0 0 88 88" id="info-circle-sprite"><path fill="currentColor" d="M44 88c24.3 0 44-19.7 44-44S68.3 0 44 0 0 19.7 0 44s19.7 44 44 44zm0-8c19.882 0 36-16.118 36-36S63.882 8 44 8 8 24.118 8 44s16.118 36 36 36zm0-42h4v20h3v4H37v-4h3V42h-3v-4h7zm-4-16h8v8h-8v-8z" fill-rule="evenodd"/></symbol>


<symbol id="exit" viewBox="0 0 20 20"><g stroke="none" stroke-width="1" fill="none" fill-rule="evenodd"><g transform="translate(-110.000000, -50.000000)" fill="currentColor"><g transform="translate(20.000000, 50.000000)"><path d="M92,17.0024554 C92,17.553384 92.4446309,18 93.0008717,18 L106.999128,18 C107.551894,18 108,17.5536886 108,17.0024554 L108,9.99754465 C108,9.44661595 107.556135,9 107,9 C106.447715,9 106,9.43788135 106,10.0029293 L106,16 L94,16 L94,10.0029293 C94,9.44902676 93.5561352,9 93,9 C92.4477153,9 92,9.4463114 92,9.99754465 L92,17.0024554 Z M101,13 L101,6 L103.001043,6 C103.552752,6 103.686127,5.68612671 103.294088,5.29408795 L100,2 L96.7059121,5.29408795 C96.3160476,5.68395241 96.4426603,6 96.9989566,6 L99,6 L99,13 L101,13 Z" transform="translate(100.000000, 10.000000) rotate(-90.000000) translate(-100.000000, -10.000000) "/></g></g></g></symbol>


<symbol id="search-images" viewBox="0 0 65 65" ><path fill="currentColor" d="M56.807,30.456V10.291c0-3.653-2.972-6.625-6.625-6.625H7.131c-3.653,0-6.625,2.972-6.625,6.625v35.192  c0,3.653,2.972,6.625,6.625,6.625h25.604c2.772,5.464,8.434,9.226,14.969,9.226c9.258,0,16.79-7.532,16.79-16.79  C64.494,38.642,61.426,33.451,56.807,30.456z M7.131,49.108c-1.999,0-3.625-1.626-3.625-3.625V10.291  c0-1.999,1.626-3.625,3.625-3.625h43.051c1.999,0,3.625,1.626,3.625,3.625v18.628c-1.895-0.743-3.948-1.165-6.103-1.165  c-0.989,0-1.953,0.103-2.896,0.268l-4.89-3.975c-0.007-0.005-0.014-0.008-0.021-0.014c-0.042-0.033-0.087-0.059-0.132-0.087  c-0.041-0.026-0.08-0.054-0.123-0.075c-0.032-0.016-0.066-0.026-0.1-0.04c-0.058-0.024-0.115-0.049-0.175-0.066  c-0.022-0.006-0.046-0.007-0.069-0.013c-0.07-0.016-0.142-0.031-0.213-0.036c-0.028-0.002-0.058,0.001-0.086,0  c-0.066-0.001-0.133-0.003-0.199,0.005c-0.036,0.004-0.071,0.015-0.107,0.021c-0.06,0.011-0.119,0.021-0.177,0.04  c-0.033,0.011-0.065,0.027-0.099,0.041c-0.06,0.023-0.118,0.047-0.175,0.078c-0.006,0.004-0.013,0.005-0.019,0.009l-6.792,3.903  l-8.074-7.523c-0.008-0.008-0.02-0.01-0.028-0.017c-0.136-0.122-0.288-0.213-0.451-0.277c-0.02-0.008-0.039-0.016-0.059-0.023  c-0.163-0.056-0.331-0.082-0.502-0.08c-0.022,0-0.044,0-0.066,0.001c-0.167,0.009-0.332,0.048-0.49,0.114  c-0.023,0.009-0.045,0.018-0.068,0.029c-0.116,0.055-0.228,0.121-0.331,0.208L6.073,33.246c-0.631,0.536-0.708,1.483-0.171,2.114  c0.296,0.349,0.719,0.528,1.143,0.528c0.344,0,0.689-0.117,0.971-0.357l14.275-12.137l11.96,11.146  c-2.086,2.798-3.338,6.254-3.338,10.004c0,1.584,0.235,3.11,0.647,4.564H7.131z M36.25,32.302l-2.521-2.349l5.097-2.928l2.469,2.006  C39.414,29.812,37.715,30.931,36.25,32.302z M47.704,58.334c-7.604,0-13.79-6.187-13.79-13.79s6.187-13.79,13.79-13.79  s13.79,6.187,13.79,13.79S55.308,58.334,47.704,58.334z"/><path fill="currentColor" d="M11.871,20.932c3.488,0,6.326-2.838,6.326-6.326s-2.838-6.326-6.326-6.326s-6.326,2.838-6.326,6.326  S8.383,20.932,11.871,20.932z M11.871,11.279c1.834,0,3.326,1.492,3.326,3.326s-1.492,3.326-3.326,3.326s-3.326-1.492-3.326-3.326  S10.037,11.279,11.871,11.279z"/><path fill="currentColor" d="M50.872,46.169c0.831-1.242,1.277-2.7,1.277-4.228c0-2.036-0.794-3.951-2.234-5.392s-3.355-2.233-5.392-2.233  s-3.951,0.793-5.392,2.233s-2.233,3.354-2.233,5.392c0,2.036,0.793,3.951,2.233,5.392s3.354,2.233,5.392,2.233  c1.527,0,2.986-0.446,4.228-1.276l5.132,5.132c0.293,0.293,0.677,0.439,1.061,0.439s0.768-0.146,1.061-0.439  c0.586-0.586,0.586-1.535,0-2.121L50.872,46.169z M41.253,45.212c-0.874-0.874-1.354-2.035-1.354-3.271s0.481-2.396,1.354-3.271  c0.874-0.874,2.035-1.354,3.271-1.354s2.396,0.48,3.271,1.354s1.355,2.035,1.355,3.271s-0.481,2.396-1.355,3.271  c-0.874,0.873-2.035,1.354-3.271,1.354S42.127,46.085,41.253,45.212z"/></symbol>


<symbol id="happy-lock" viewBox="20 10 60 80"><path fill="currentColor" d="M50,11.562c-8.787,0-15.938,7.15-15.938,15.938v14.081c-4.151,0.103-7.5,3.521-7.5,7.729v29.506  c0,4.271,3.448,7.747,7.687,7.747h31.502c4.239,0,7.687-3.476,7.687-7.747V49.31c0-4.208-3.349-7.626-7.5-7.729V27.5  C65.938,18.713,58.787,11.562,50,11.562z M50,13.438c7.754,0,14.062,6.308,14.062,14.062v14.062h-5.625V27.5  c0-4.652-3.785-8.438-8.438-8.438s-8.438,3.785-8.438,8.438v14.062h-5.625V27.5C35.938,19.745,42.246,13.438,50,13.438z   M43.438,41.562V27.5c0-3.618,2.944-6.562,6.562-6.562s6.562,2.944,6.562,6.562v14.062H43.438z M71.562,49.31v29.506  c0,3.237-2.607,5.872-5.812,5.872H34.249c-3.204,0-5.812-2.635-5.812-5.872V49.31c0-3.237,2.607-5.872,5.812-5.872h31.502  C68.955,43.438,71.562,46.072,71.562,49.31z"/><ellipse fill="currentColor" cx="40.625" cy="65.938" rx="1.875" ry="2.812"/><ellipse fill="currentColor" cx="59.375" cy="65.938" rx="1.875" ry="2.812"/><path fill="currentColor" d="M59.375,70.625h-18.75c-0.586,0-1.137,0.274-1.492,0.74c-0.354,0.467-0.471,1.072-0.313,1.637  C38.898,73.287,40.869,80,50,80c9.133,0,11.102-6.713,11.182-6.998c0.156-0.564,0.041-1.17-0.315-1.637  C60.514,70.899,59.961,70.625,59.375,70.625z"/></symbol>


<symbol id="competition" viewBox="5 10 90 85"><path fill="currentColor" d="M49.813 17a1 1 0 0 0-.72.563l-2.75 5.5-6.5.937a1 1 0 0 0-.562 1.719l4.657 4.656L43 36.844a1 1 0 0 0 1.438 1.062L50 35.125l5.563 2.781A1 1 0 0 0 57 36.844l-.938-6.469 4.657-4.656A1 1 0 0 0 60.156 24l-6.5-.938-2.75-5.5a1 1 0 0 0-1-.562 1 1 0 0 0-.093 0zM50 20.25l2.094 4.188a1 1 0 0 0 .75.562l5 .719-3.563 3.562a1 1 0 0 0-.281.875l.719 5.094-4.282-2.156a1 1 0 0 0-.874 0L45.28 35.25 46 30.156a1 1 0 0 0-.281-.875l-3.563-3.562 5-.719a1 1 0 0 0 .75-.563L50 20.25zM77.813 27a1 1 0 0 0-.72.563l-2.75 5.5-6.5.937a1 1 0 0 0-.562 1.719l4.656 4.656L71 46.844a1 1 0 0 0 1.438 1.062L78 45.125l5.563 2.781A1 1 0 0 0 85 46.844l-.938-6.469 4.657-4.656A1 1 0 0 0 88.156 34l-6.5-.938-2.75-5.5a1 1 0 0 0-1-.562 1 1 0 0 0-.094 0zM78 30.25l2.094 4.188a1 1 0 0 0 .75.562l5 .719-3.563 3.562a1 1 0 0 0-.281.875l.719 5.094-4.281-2.156a1 1 0 0 0-.876 0l-4.28 2.156.718-5.094a1 1 0 0 0-.281-.875l-3.563-3.562 5-.719a1 1 0 0 0 .75-.563L78 30.25zM21.812 37a1 1 0 0 0-.718.563l-2.75 5.5-6.5.937a1 1 0 0 0-.563 1.719l4.656 4.656L15 56.844a1 1 0 0 0 1.438 1.062L22 55.125l5.563 2.781A1 1 0 0 0 29 56.844l-.938-6.469 4.657-4.656A1 1 0 0 0 32.156 44l-6.5-.938-2.75-5.5a1 1 0 0 0-1-.562 1 1 0 0 0-.093 0zM22 40.25l2.094 4.188a1 1 0 0 0 .75.562l5 .719-3.563 3.562a1 1 0 0 0-.281.875l.719 5.094-4.282-2.156a1 1 0 0 0-.875 0l-4.28 2.156.718-5.094a1 1 0 0 0-.281-.875l-3.563-3.562 5-.719a1 1 0 0 0 .75-.563L22 40.25zm37.906 3.719a1 1 0 0 0-.125.031A1 1 0 0 0 59 45v36H41V46h13a1 1 0 1 0 0-2H40a1 1 0 0 0-.094 0A1 1 0 0 0 39 45v36h-6V65a1 1 0 0 0-1-1H12a1 1 0 0 0-.094 0A1 1 0 0 0 11 65v16H8a1 1 0 0 0-.094 0A1.001 1.001 0 1 0 8 83h84a1 1 0 1 0 0-2h-3V55a1 1 0 0 0-1-1H68a1 1 0 0 0-.094 0A1 1 0 0 0 67 55v26h-6V45a1 1 0 0 0-1.094-1.031zM69 56h18v25H69V56zM13 66h18v15H13V66z"/></symbol>
<symbol id="new-image" viewBox="0 0 65 65"><path fill="currentColor" d="M56.807 30.456V10.291a6.633 6.633 0 0 0-6.625-6.625H7.131a6.633 6.633 0 0 0-6.625 6.625v35.192a6.633 6.633 0 0 0 6.625 6.625h25.604c2.772 5.464 8.434 9.226 14.969 9.226 9.258 0 16.79-7.532 16.79-16.79 0-5.902-3.068-11.093-7.687-14.088zM7.131 49.108a3.629 3.629 0 0 1-3.625-3.625V10.291a3.629 3.629 0 0 1 3.625-3.625h43.051a3.629 3.629 0 0 1 3.625 3.625v18.628a16.67 16.67 0 0 0-6.103-1.165c-.989 0-1.953.103-2.896.268l-4.89-3.975c-.007-.005-.014-.008-.021-.014-.042-.033-.087-.059-.132-.087-.041-.026-.08-.054-.123-.075-.032-.016-.066-.026-.1-.04-.058-.024-.115-.049-.175-.066-.022-.006-.046-.007-.069-.013a1.414 1.414 0 0 0-.213-.036c-.028-.002-.058.001-.086 0-.066-.001-.133-.003-.199.005-.036.004-.071.015-.107.021-.06.011-.119.021-.177.04-.033.011-.065.027-.099.041-.06.023-.118.047-.175.078-.006.004-.013.005-.019.009l-6.792 3.903-8.074-7.523c-.008-.008-.02-.01-.028-.017a1.481 1.481 0 0 0-.451-.277l-.059-.023a1.482 1.482 0 0 0-.502-.08l-.066.001a1.477 1.477 0 0 0-.558.143 1.504 1.504 0 0 0-.331.208L6.073 33.246a1.5 1.5 0 1 0 1.943 2.285l14.275-12.137 11.96 11.146c-2.086 2.798-3.338 6.254-3.338 10.004 0 1.584.235 3.11.647 4.564H7.131zM36.25 32.302l-2.521-2.349 5.097-2.928 2.469 2.006a16.84 16.84 0 0 0-5.045 3.271zm11.454 26.032c-7.604 0-13.79-6.187-13.79-13.79s6.187-13.79 13.79-13.79 13.79 6.187 13.79 13.79-6.186 13.79-13.79 13.79z"/><path fill="currentColor" d="M11.871 20.932c3.488 0 6.326-2.838 6.326-6.326S15.359 8.28 11.871 8.28s-6.326 2.838-6.326 6.326 2.838 6.326 6.326 6.326zm0-9.653c1.834 0 3.326 1.492 3.326 3.326s-1.492 3.326-3.326 3.326-3.326-1.492-3.326-3.326 1.492-3.326 3.326-3.326zm44.736 31.765h-7.403v-7.403a1.5 1.5 0 0 0-3 0v7.403h-7.403a1.5 1.5 0 0 0 0 3h7.403v7.403a1.5 1.5 0 0 0 3 0v-7.403h7.403a1.5 1.5 0 0 0 0-3z"/></symbol>

<symbol id="hamburger" viewBox="0 0 100 100"><path fill="currentColor" d="M98.928 52.26c-.444-2.146-2.909-2.909-4.748-3.416a33.533 33.533 0 0 0-1.772-.418C91.146 29.006 75.502 17.5 50 17.5c-25.501 0-41.145 11.505-42.407 30.924-.608.132-1.208.262-1.77.417-1.839.507-4.306 1.271-4.75 3.418-.468 2.261 1.208 3.661 3.125 4.382 1.005.378 2.041.656 3.082.915A7.977 7.977 0 0 0 4 64c0 2.977 1.637 5.573 4.055 6.951 1.647 8.072 7.341 13.381 14.984 13.381h54.016c7.597 0 13.257-5.31 14.894-13.383C94.364 69.57 96 66.975 96 64a7.977 7.977 0 0 0-3.278-6.442c1.04-.259 2.074-.537 3.078-.915 1.918-.721 3.596-2.122 3.128-4.383zM50 21.5c11.279 0 37.13 2.73 38.447 27.5H11.552C12.87 24.23 38.721 21.5 50 21.5zm2.02 31.501c-2.641 1.025-7.006 2-13.017 2s-10.375-.975-13.015-2H52.02zm25.035 27.331H23.039c-5.103 0-8.958-3.183-10.604-8.332H51.66c3.886 1.6 7.639 4.116 10.937 7.414.375.375.883.586 1.414.586h.003a2.004 2.004 0 0 0 1.415-.589c3.802-3.822 9.195-6.398 15.299-7.411h6.845c-1.634 5.149-5.457 8.332-10.518 8.332zM59.934 72h8.735a28.723 28.723 0 0 0-4.642 3.253A39.486 39.486 0 0 0 59.934 72zm28.058-17.336c-2.166.685-3.588 1.792-5.098 3.464-1.089 1.207-2.715 3.47-4.572 3.358-1.921-.114-3.782-1.364-5.58-1.963-2.189-.73-4.369-.831-6.45.265-1.959 1.032-3.513 2.754-5.538 3.655-1.835.815-3.562-.512-5.107-1.415C53.92 61.02 52.056 60 50 60c-2.168 0-4.111 1.128-5.925 2.191-1.826 1.069-3.409 2.094-5.424.947-1.923-1.095-3.491-2.74-5.535-3.637-2.034-.891-4.171-.583-6.206.14-1.109.395-2.173.898-3.273 1.316-.7.267-1.605.663-2.374.508-1.851-.376-3.196-2.279-4.39-3.589-1.539-1.688-3.037-2.662-5.228-3.326-1.905-.577-3.879-.925-5.77-1.55a26.076 26.076 0 0 1 2.196-.604c.363.372.869.604 1.429.604h10.013c2.189 4.106 11.115 6 19.49 6s17.304-1.894 19.493-6H90.5c.56 0 1.064-.231 1.428-.602.745.176 1.483.365 2.197.601-2.011.669-4.112 1.026-6.133 1.665z"/><path fill="currentColor" d="M74.034 35.929a.124.124 0 0 0-.105.105 4.936 4.936 0 0 0 1.379 4.202 4.95 4.95 0 0 0 4.203 1.38.124.124 0 0 0 .105-.105 4.94 4.94 0 0 0-1.381-4.201 4.97 4.97 0 0 0-4.201-1.381zM61.661 35.929a4.976 4.976 0 0 0-4.201 1.38 4.946 4.946 0 0 0-1.38 4.201.124.124 0 0 0 .105.105c.239.036.482.053.724.053h.001a4.951 4.951 0 0 0 3.478-1.433 4.935 4.935 0 0 0 1.379-4.202.125.125 0 0 0-.106-.104zM38.338 35.929a.125.125 0 0 0-.105.105 4.94 4.94 0 0 0 1.379 4.202 4.948 4.948 0 0 0 4.202 1.38.125.125 0 0 0 .105-.105 4.941 4.941 0 0 0-1.38-4.201 4.982 4.982 0 0 0-4.201-1.381zM25.966 35.929a4.988 4.988 0 0 0-4.201 1.38 4.938 4.938 0 0 0-1.38 4.201.123.123 0 0 0 .105.105 4.948 4.948 0 0 0 4.202-1.38 4.939 4.939 0 0 0 1.379-4.202.123.123 0 0 0-.105-.104zM65.11 24.386a.124.124 0 0 0-.105.105 4.936 4.936 0 0 0 1.379 4.202 4.95 4.95 0 0 0 4.203 1.38.124.124 0 0 0 .105-.105 4.94 4.94 0 0 0-1.381-4.201 4.97 4.97 0 0 0-4.201-1.381zM52.737 24.386a4.972 4.972 0 0 0-4.2 1.38 4.938 4.938 0 0 0-1.38 4.201.123.123 0 0 0 .105.105 4.948 4.948 0 0 0 4.202-1.38 4.935 4.935 0 0 0 1.379-4.202.126.126 0 0 0-.106-.104zM34.89 24.386a4.984 4.984 0 0 0-4.201 1.38 4.938 4.938 0 0 0-1.38 4.201.123.123 0 0 0 .105.105 4.948 4.948 0 0 0 4.202-1.38 4.939 4.939 0 0 0 1.379-4.202.125.125 0 0 0-.105-.104z"/>
</symbol>

  </defs>
</svg>
