<?xml version="1.0" encoding="UTF-8" standalone="no"?>
<svg
   xmlns:dc="http://purl.org/dc/elements/1.1/"
   xmlns:cc="http://creativecommons.org/ns#"
   xmlns:rdf="http://www.w3.org/1999/02/22-rdf-syntax-ns#"
   xmlns:svg="http://www.w3.org/2000/svg"
   xmlns="http://www.w3.org/2000/svg"
   xmlns:sodipodi="http://sodipodi.sourceforge.net/DTD/sodipodi-0.dtd"
   xmlns:inkscape="http://www.inkscape.org/namespaces/inkscape"
   version="1.0"
   width="1606.3474pt"
   height="422.50131pt"
   viewBox="0 0 1606.3474 422.50131"
   preserveAspectRatio="xMidYMid meet"
   id="svg3392"
   inkscape:version="0.91 r13725"
   sodipodi:docname="puzzle-massive-logo-trim.svg">
  <defs
     id="defs3408" />
  <sodipodi:namedview
     pagecolor="#ffffff"
     bordercolor="#666666"
     borderopacity="1"
     objecttolerance="10"
     gridtolerance="10"
     guidetolerance="10"
     inkscape:pageopacity="0"
     inkscape:pageshadow="2"
     inkscape:window-width="1656"
     inkscape:window-height="858"
     id="namedview3406"
     showgrid="false"
     fit-margin-top="0"
     fit-margin-left="0"
     fit-margin-right="0"
     fit-margin-bottom="0"
     inkscape:zoom="0.49433192"
     inkscape:cx="1036.1843"
     inkscape:cy="244.77135"
     inkscape:window-x="0"
     inkscape:window-y="0"
     inkscape:window-maximized="0"
     inkscape:current-layer="svg3392" />
  <metadata
     id="metadata3394">
Created by potrace 1.13, written by Peter Selinger 2001-2015
<rdf:RDF>
  <cc:Work
     rdf:about="">
    <dc:format>image/svg+xml</dc:format>
    <dc:type
       rdf:resource="http://purl.org/dc/dcmitype/StillImage" />
    <dc:title></dc:title>
  </cc:Work>
</rdf:RDF>
</metadata>
  <g
     transform="matrix(0.1,0,0,-0.1,-51.052551,570.68424)"
     id="g3396"
     style="fill:rgb(73,111,129);stroke:none">
    <path
       d="m 1440,5700 c -240,-19 -336,-43 -375,-94 -89,-117 -260,-778 -225,-871 6,-15 48,-65 94,-111 87,-88 124,-147 133,-212 8,-63 -106,-927 -178,-1347 -17,-99 -40,-200 -50,-225 -23,-52 -79,-113 -164,-178 -81,-61 -134,-112 -151,-144 -55,-105 69,-706 180,-870 51,-76 137,-103 389,-119 265,-18 735,12 956,60 117,26 187,56 195,84 11,42 6,253 -9,387 -22,190 -68,485 -130,840 -30,168 -55,322 -57,344 -9,106 108,46 142,-73 6,-20 42,-220 80,-446 98,-570 165,-829 237,-915 34,-41 134,-88 226,-105 44,-8 134,-15 205,-15 207,0 364,43 435,118 49,51 87,236 167,801 28,195 59,387 69,428 22,83 59,148 97,165 52,24 51,15 -9,-414 -81,-576 -90,-666 -91,-895 -1,-227 1,-235 80,-281 147,-84 561,-139 968,-129 227,6 322,19 371,51 28,19 67,95 105,211 20,59 25,67 34,51 39,-66 116,-151 167,-185 100,-67 157,-84 296,-89 191,-6 288,21 450,128 101,67 116,65 123,-16 3,-34 11,-68 17,-76 33,-39 225,-63 458,-55 227,7 306,24 360,81 40,42 97,147 131,242 l 18,51 71,-71 c 222,-222 629,-319 1074,-255 194,28 316,60 417,109 109,53 208,144 257,237 l 35,67 27,-55 c 111,-219 489,-379 895,-379 127,0 359,31 499,66 195,49 358,160 428,291 l 31,57 12,-45 c 6,-24 29,-80 50,-125 92,-198 155,-219 655,-219 251,1 328,4 405,18 144,26 216,53 244,90 71,95 153,338 172,513 11,107 -29,166 -156,229 -121,60 -133,85 -138,289 -2,87 -1,197 3,243 l 7,85 21,-20 c 12,-11 40,-29 62,-40 96,-48 104,-67 235,-562 68,-255 167,-556 220,-663 61,-125 105,-172 188,-197 124,-39 253,-53 487,-54 286,-1 449,26 548,91 70,45 113,167 266,768 55,215 111,428 125,473 23,80 70,172 91,179 6,2 10,-84 10,-244 0,-280 11,-363 71,-543 122,-366 374,-592 749,-672 93,-19 397,-16 530,6 276,45 457,130 614,287 143,143 185,236 185,409 0,124 -25,220 -77,295 -67,99 -147,109 -256,35 -91,-61 -203,-115 -306,-146 -78,-24 -108,-28 -225,-28 -116,-1 -141,2 -175,19 -22,11 -41,27 -43,35 -2,13 20,15 145,16 160,1 232,13 370,62 115,40 187,86 273,172 83,83 144,189 176,310 27,98 25,282 -4,382 -70,247 -224,425 -464,538 -310,145 -734,128 -1035,-41 -107,-60 -272,-224 -336,-334 -26,-44 -47,-75 -47,-70 -1,49 -33,234 -50,287 -30,99 -52,112 -240,145 -71,13 -158,17 -345,17 -266,1 -364,-10 -409,-45 -46,-37 -61,-201 -76,-864 -13,-611 -12,-590 -34,-614 -25,-27 -62,-27 -77,1 -8,16 -10,181 -8,627 2,333 0,632 -4,665 -6,40 -16,66 -32,82 -93,93 -719,139 -929,68 -58,-20 -114,-82 -140,-155 l -20,-53 -15,49 c -13,40 -24,54 -56,72 -74,41 -165,56 -385,61 -225,5 -426,-13 -567,-49 -89,-22 -116,-44 -162,-129 l -31,-55 0,203 c 0,149 -4,211 -14,236 -15,37 -58,61 -139,78 l -53,11 28,31 c 47,51 68,108 68,183 0,81 -33,162 -77,189 -15,10 -30,19 -32,21 -2,2 4,12 13,22 25,27 56,134 56,190 0,102 -49,209 -129,284 -63,59 -128,91 -225,111 -97,20 -127,20 -223,0 -83,-17 -157,-50 -216,-96 -37,-29 -127,-146 -127,-165 0,-5 -7,-18 -15,-29 -12,-17 -14,9 -12,223 2,240 2,241 -21,266 -40,42 -127,61 -292,61 -127,1 -151,-2 -191,-20 -38,-18 -50,-30 -73,-79 -15,-32 -32,-81 -38,-109 -6,-28 -14,-54 -18,-58 -6,-8 -94,-19 -312,-39 l -128,-12 -21,26 c -11,15 -37,32 -58,38 -49,15 -286,7 -326,-10 -16,-8 -67,-15 -112,-17 -45,-2 -110,-8 -145,-13 -35,-5 -105,-13 -156,-17 -89,-6 -94,-6 -109,16 -27,39 -73,50 -200,50 -162,0 -233,-22 -233,-73 0,-17 -4,-19 -32,-12 -18,4 -51,11 -73,16 -56,11 -251,11 -316,-1 -39,-7 -60,-17 -76,-37 -13,-16 -23,-23 -23,-17 0,40 -168,77 -333,73 l -92,-2 -3,34 c -19,247 -123,388 -328,443 -83,23 -253,31 -344,16 -138,-22 -184,-23 -266,-6 -209,44 -286,32 -327,-51 -52,-102 -96,-336 -82,-432 8,-56 26,-78 76,-91 32,-9 39,-16 44,-43 12,-72 35,-345 35,-418 0,-86 -3,-92 -72,-139 -20,-13 -42,-35 -47,-48 -34,-74 22,-274 96,-344 15,-14 46,-31 68,-37 134,-37 521,-12 580,37 73,60 129,291 92,372 -6,12 9,21 66,43 91,33 178,89 235,149 43,45 44,45 80,33 20,-7 38,-18 40,-23 2,-6 -8,-46 -21,-89 -53,-166 -52,-286 1,-389 90,-174 323,-205 475,-62 28,26 55,48 59,48 4,0 8,-15 8,-33 0,-79 54,-101 250,-102 118,0 140,3 177,21 l 42,21 27,-28 c 31,-32 32,-30 -16,-54 -101,-51 -199,-155 -245,-260 -64,-143 -72,-358 -21,-520 55,-174 146,-263 368,-361 240,-107 329,-166 349,-233 21,-70 6,-76 -50,-22 -57,56 -131,100 -211,127 -81,27 -227,25 -302,-5 -100,-39 -186,-133 -224,-245 -9,-25 -20,-46 -25,-46 -6,0 -20,11 -33,25 -41,44 -40,98 5,400 18,119 23,194 24,360 0,240 -8,284 -76,425 -34,69 -58,101 -128,170 -70,70 -103,94 -181,133 -175,87 -382,124 -635,114 -174,-7 -303,-31 -432,-79 -211,-80 -359,-213 -420,-378 -89,-237 -18,-476 168,-569 129,-64 284,-76 399,-31 71,28 175,103 203,146 26,40 37,43 37,9 0,-115 -139,-215 -415,-299 -172,-52 -300,-112 -360,-167 l -42,-39 -137,72 c -172,89 -222,132 -241,208 -39,150 -124,917 -161,1441 -8,121 5,150 112,246 43,37 98,87 122,111 l 45,42 -6,103 c -12,208 -91,623 -141,739 -9,21 -26,44 -39,52 -69,46 -501,73 -882,56 -363,-16 -611,-50 -711,-97 -98,-46 -141,-244 -164,-751 -9,-202 -16,-246 -44,-264 -20,-14 -53,-8 -70,11 -15,16 -18,63 -26,387 -9,350 -23,519 -49,586 -18,47 -97,77 -286,108 -271,44 -837,70 -1095,50 z m 4085,-175 c 118,-25 184,-28 263,-11 41,9 120,16 178,16 292,0 425,-100 454,-339 12,-99 -2,-221 -41,-346 -31,-103 -52,-137 -118,-196 -131,-119 -321,-179 -427,-134 -44,18 -54,13 -54,-29 0,-59 50,-99 153,-120 24,-6 27,-11 27,-49 0,-58 -34,-175 -57,-198 -29,-29 -128,-42 -328,-43 -157,-1 -184,1 -208,17 -34,22 -64,84 -83,172 l -15,70 25,20 c 13,11 36,28 50,38 50,35 59,69 58,217 -2,135 -26,393 -42,434 -11,29 -42,56 -76,65 l -29,8 1,89 c 1,92 30,233 61,299 16,34 18,35 77,35 34,0 92,-7 131,-15 z m 4260,-211 40,-19 -1,-120 c -1,-66 -6,-203 -13,-304 -6,-102 -11,-250 -11,-330 l 0,-145 43,-40 c 24,-23 51,-59 59,-82 16,-38 15,-44 -6,-108 -38,-111 -36,-111 -244,-114 -97,-1 -197,1 -221,5 -42,8 -47,12 -72,64 -27,53 -27,59 -18,130 7,49 15,77 26,84 52,33 66,53 74,106 10,68 10,278 0,433 l -7,119 -54,47 -55,48 23,86 c 28,105 52,149 89,158 16,4 91,6 168,4 115,-2 147,-6 180,-22 z M 7777,5094 c 38,-5 54,-12 58,-24 3,-10 21,-25 40,-34 36,-18 31,-18 330,14 154,16 172,15 190,-20 8,-16 15,-39 15,-52 0,-34 -48,-122 -153,-281 -224,-339 -278,-452 -235,-495 30,-30 52,-13 118,91 36,56 74,116 85,134 11,17 29,34 40,37 31,9 93,7 99,-3 4,-5 2,-54 -2,-108 -7,-80 -13,-106 -32,-131 -23,-31 -24,-61 -4,-144 10,-44 -20,-53 -183,-53 l -142,0 -29,35 -29,34 -99,-13 c -54,-6 -124,-16 -154,-21 -30,-5 -80,-9 -110,-9 -52,-1 -57,1 -73,29 -17,29 -17,32 2,98 17,57 43,100 151,248 162,224 200,288 200,334 0,43 -15,60 -51,60 -23,0 -38,-18 -111,-122 -85,-124 -127,-163 -148,-142 -19,19 -29,137 -30,325 0,125 4,180 13,192 16,22 144,33 244,21 z m 968,-28 c 33,-41 66,-48 179,-36 329,34 318,34 332,14 7,-11 22,-28 33,-39 11,-11 24,-32 30,-46 8,-22 4,-33 -26,-75 -118,-164 -323,-489 -354,-561 -32,-75 -22,-133 23,-133 19,0 44,31 128,165 30,48 63,93 74,101 21,14 72,19 100,8 23,-9 21,-75 -4,-106 -24,-31 -27,-63 -16,-150 11,-86 1,-155 -24,-168 -10,-6 -37,-11 -59,-12 -22,-1 -46,-5 -53,-9 -8,-5 -16,1 -24,20 -24,56 -153,91 -340,91 -117,0 -267,-20 -307,-41 -43,-23 -67,61 -29,99 11,11 21,27 24,38 3,10 60,94 127,186 204,281 228,327 202,384 -8,17 -19,24 -40,24 -26,0 -37,-10 -78,-71 -127,-187 -159,-218 -188,-188 -9,9 -16,56 -21,134 l -6,120 36,53 c 40,61 40,75 -2,155 -16,29 -22,51 -16,57 13,13 85,18 189,14 82,-3 92,-5 110,-28 z m 1768,4 c 155,-48 247,-164 247,-311 0,-71 -17,-122 -62,-179 -54,-69 -197,-119 -304,-106 -52,6 -55,5 -64,-20 -8,-20 -7,-32 5,-50 8,-13 19,-24 23,-24 4,-1 25,-4 48,-9 83,-16 218,16 296,70 54,39 90,13 103,-73 10,-66 -8,-118 -62,-174 -25,-27 -46,-52 -45,-56 1,-5 -40,-8 -92,-8 -115,0 -247,-24 -303,-55 -23,-12 -45,-19 -50,-15 -4,4 -29,14 -55,23 -110,36 -198,127 -198,203 0,35 -7,51 -32,80 l -33,37 -3,137 c -3,117 -1,148 18,214 36,131 111,235 202,282 107,56 247,69 361,34 z m -3710,-41 c 81,-15 79,-11 66,-200 -23,-318 -21,-338 42,-339 49,0 61,36 75,225 7,93 17,200 24,237 12,67 12,68 48,75 94,19 340,1 357,-26 2,-5 -2,-47 -9,-92 -34,-197 -57,-385 -51,-415 7,-37 43,-68 93,-79 24,-5 32,-12 32,-28 -1,-46 -21,-108 -50,-150 -22,-33 -30,-57 -30,-89 0,-77 -10,-83 -152,-86 -68,-2 -140,0 -159,5 l -34,9 -5,75 c -6,86 -12,99 -47,99 -20,0 -43,-18 -92,-71 -81,-88 -144,-123 -221,-123 -135,-1 -230,122 -217,283 2,36 19,108 36,160 17,51 31,107 31,123 0,36 -40,78 -74,78 -14,0 -27,4 -30,8 -3,5 8,41 25,81 16,39 35,110 42,159 13,84 14,87 43,94 35,8 186,1 257,-13 z M 8663,3076 c 59,-36 65,-37 128,-32 113,8 239,70 264,130 10,22 15,27 19,16 38,-105 53,-137 84,-179 72,-96 115,-123 402,-259 152,-72 224,-126 241,-181 21,-70 6,-76 -50,-22 -102,100 -217,146 -361,145 -127,0 -191,-25 -274,-105 -33,-32 -60,-58 -60,-56 -1,1 -17,33 -36,72 -68,136 -182,253 -394,405 -91,65 -146,132 -146,177 0,22 4,21 60,-25 33,-27 89,-66 123,-86 z m 1890,1 c 89,-53 170,-48 302,18 63,32 69,33 81,17 7,-9 14,-20 14,-23 0,-10 70,-36 117,-44 88,-14 118,-72 129,-245 10,-151 -16,-295 -64,-351 -27,-32 -122,-99 -142,-99 -5,0 -10,13 -10,28 0,48 -29,144 -66,220 -68,139 -183,258 -398,412 -91,65 -146,132 -146,177 0,22 4,21 60,-25 33,-27 88,-65 123,-85 z m 5055,103 c 50,-23 53,-35 10,-49 -114,-37 -250,-52 -263,-30 -19,29 101,99 170,99 22,0 59,-9 83,-20 z M 6160,2388 c 0,-49 -32,-93 -92,-127 -70,-40 -113,-49 -137,-27 -40,36 -26,94 23,94 26,0 137,49 171,76 29,23 35,20 35,-16 z"
       id="path3398"
       inkscape:connector-curvature="0" />
    <path
       d="m 5819,5173 c -10,-11 -15,-57 -17,-160 -3,-119 -1,-148 12,-169 32,-48 84,-23 112,53 18,50 18,184 0,227 -24,58 -79,83 -107,49 z"
       id="path3400"
       inkscape:connector-curvature="0" />
    <path
       d="m 10319,4784 c -37,-15 -63,-53 -53,-78 10,-27 51,-36 107,-25 63,13 97,33 97,58 0,47 -86,73 -151,45 z"
       id="path3402"
       inkscape:connector-curvature="0" />
    <path
       d="m 11545,4774 c -96,-8 -256,-36 -308,-53 -249,-86 -344,-269 -287,-556 23,-115 106,-205 225,-244 98,-32 170,-41 340,-41 540,0 776,144 775,473 -1,213 -99,334 -322,397 -73,21 -299,34 -423,24 z"
       id="path3404"
       inkscape:connector-curvature="0" />
  </g>
</svg>
