<svg id="mermaid-1633752401416" width="100%" xmlns="http://www.w3.org/2000/svg" height="1300" style="max-width: 643.15625px;" viewBox="20 20 643.15625 1300"><style>#mermaid-1633752401416 {font-family:"trebuchet ms",verdana,arial,sans-serif;font-size:16px;fill:#c28265;}#mermaid-1633752401416 .error-icon{fill:hsl(180, 0%, 19.9019607843%);}#mermaid-1633752401416 .error-text{fill:rgb(204.25, 204.25, 204.25);stroke:rgb(204.25, 204.25, 204.25);}#mermaid-1633752401416 .edge-thickness-normal{stroke-width:2px;}#mermaid-1633752401416 .edge-thickness-thick{stroke-width:3.5px;}#mermaid-1633752401416 .edge-pattern-solid{stroke-dasharray:0;}#mermaid-1633752401416 .edge-pattern-dashed{stroke-dasharray:3;}#mermaid-1633752401416 .edge-pattern-dotted{stroke-dasharray:2;}#mermaid-1633752401416 .marker{fill:#3d91cc;stroke:#3d91cc;}#mermaid-1633752401416 .marker.cross{stroke:#3d91cc;}#mermaid-1633752401416 svg{font-family:"trebuchet ms",verdana,arial,sans-serif;font-size:16px;}#mermaid-1633752401416 .entityBox{fill:#262626;stroke:#3d91cc;}#mermaid-1633752401416 .attributeBoxOdd{fill:#ffffff;stroke:#3d91cc;}#mermaid-1633752401416 .attributeBoxEven{fill:#f2f2f2;stroke:#3d91cc;}#mermaid-1633752401416 .relationshipLabelBox{fill:hsl(180, 0%, 19.9019607843%);opacity:0.7;background-color:hsl(180, 0%, 19.9019607843%);}#mermaid-1633752401416 .relationshipLabelBox rect{opacity:0.5;}#mermaid-1633752401416 .relationshipLine{stroke:#3d91cc;}#mermaid-1633752401416 text.er.relationshipLabel{font-weight:bold;}#mermaid-1633752401416 rect.er.relationshipLabelBox{opacity:0;}#mermaid-1633752401416 :root{--mermaid-font-family:"trebuchet ms",verdana,arial,sans-serif;}</style><g></g><defs><marker id="ONLY_ONE_START" refX="0" refY="9" markerWidth="18" markerHeight="18" orient="auto"><path stroke="gray" fill="none" d="M9,0 L9,18 M15,0 L15,18"></path></marker></defs><defs><marker id="ONLY_ONE_END" refX="18" refY="9" markerWidth="18" markerHeight="18" orient="auto"><path stroke="gray" fill="none" d="M3,0 L3,18 M9,0 L9,18"></path></marker></defs><defs><marker id="ZERO_OR_ONE_START" refX="0" refY="9" markerWidth="30" markerHeight="18" orient="auto"><circle stroke="gray" fill="white" cx="21" cy="9" r="6"></circle><path stroke="gray" fill="none" d="M9,0 L9,18"></path></marker></defs><defs><marker id="ZERO_OR_ONE_END" refX="30" refY="9" markerWidth="30" markerHeight="18" orient="auto"><circle stroke="gray" fill="white" cx="9" cy="9" r="6"></circle><path stroke="gray" fill="none" d="M21,0 L21,18"></path></marker></defs><defs><marker id="ONE_OR_MORE_START" refX="18" refY="18" markerWidth="45" markerHeight="36" orient="auto"><path stroke="gray" fill="none" d="M0,18 Q 18,0 36,18 Q 18,36 0,18 M42,9 L42,27"></path></marker></defs><defs><marker id="ONE_OR_MORE_END" refX="27" refY="18" markerWidth="45" markerHeight="36" orient="auto"><path stroke="gray" fill="none" d="M3,9 L3,27 M9,18 Q27,0 45,18 Q27,36 9,18"></path></marker></defs><defs><marker id="ZERO_OR_MORE_START" refX="18" refY="18" markerWidth="57" markerHeight="36" orient="auto"><circle stroke="gray" fill="white" cx="48" cy="18" r="6"></circle><path stroke="gray" fill="none" d="M0,18 Q18,0 36,18 Q18,36 0,18"></path></marker></defs><defs><marker id="ZERO_OR_MORE_END" refX="39" refY="18" markerWidth="57" markerHeight="36" orient="auto"><circle stroke="gray" fill="white" cx="9" cy="18" r="6"></circle><path stroke="gray" fill="none" d="M21,18 Q39,0 57,18 Q39,36 21,18"></path></marker></defs><path class="er relationshipLine" d="M119.45200892857143,795L135.56938244047618,817.9166666666666C151.68675595238096,840.8333333333334,183.92150297619048,886.6666666666666,210.43991815476193,909.5833333333334C236.95833333333334,932.5,257.7604166666667,932.5,268.1614583333333,932.5L278.5625,932.5" stroke="gray" fill="none" marker-end="url(#ONE_OR_MORE_END)" marker-start="url(#ONLY_ONE_START)"></path><path class="er relationshipLine" d="M149.8203125,757.5L160.87630208333334,757.5C171.93229166666666,757.5,194.04427083333334,757.5,213.43359375,757.5C232.82291666666666,757.5,249.48958333333334,757.5,257.8229166666667,757.5L266.15625,757.5" stroke="gray" fill="none" marker-end="url(#ONE_OR_MORE_END)" marker-start="url(#ONLY_ONE_START)"></path><path class="er relationshipLine" d="M102.79481907894737,720L121.68839089912281,647.0833333333334C140.58196271929825,574.1666666666666,178.36910635964912,428.3333333333333,210.21319901315792,355.4166666666667C242.05729166666666,282.5,267.9583333333333,282.5,280.9088541666667,282.5L293.859375,282.5" stroke="gray" fill="none" marker-end="url(#ONLY_ONE_END)" marker-start="url(#ONLY_ONE_START)"></path><path class="er relationshipLine" d="M166.15625,1107.5L174.48958333333334,1107.5C182.82291666666666,1107.5,199.48958333333334,1107.5,220.71484375,1107.5C241.94010416666666,1107.5,267.7239583333333,1107.5,280.6158854166667,1107.5L293.5078125,1107.5" stroke="gray" fill="none" marker-end="url(#ONLY_ONE_END)" marker-start="url(#ONLY_ONE_START)"></path><path class="er relationshipLine" d="M366.3952205882353,795L383.9231004901961,824.1666666666666C401.4509803921569,853.3333333333334,436.50674019607845,911.6666666666666,471.1475107230392,976.25C505.78828125,1040.8333333333333,540.0140625,1111.6666666666667,557.126953125,1147.0833333333333L574.23984375,1182.5" stroke="gray" fill="none" marker-end="url(#ONLY_ONE_END)" marker-start="url(#ONE_OR_MORE_START)"></path><path class="er relationshipLine" d="M386.4270833333333,795L400.6163194444444,807.5C414.8055555555555,820,443.18402777777777,845,475.4233716475096,803.3333333333334C507.6627155172414,761.6666666666666,543.7629310344828,653.3333333333334,561.8130387931035,599.1666666666666L579.8631465517242,545" stroke="gray" fill="none" marker-end="url(#ONLY_ONE_END)" marker-start="url(#ONE_OR_MORE_START)"></path><path class="er relationshipLine" d="M421.5625,749.8941637097761L429.8958333333333,749.0784697581466C438.2291666666667,748.2627758065173,454.8958333333333,746.6313879032587,471.5625,742.3663773474815C488.2291666666667,738.1013667917044,504.8958333333333,731.2027335834088,513.2291666666666,727.753416979261L521.5625,724.3041003751132" stroke="gray" fill="none" marker-end="url(#ONLY_ONE_END)" marker-start="url(#ONLY_ONE_START)"></path><path class="er relationshipLine" d="M375.78515625,720L391.748046875,701.25C407.7109375,682.5,439.63671875,645,467.1040736607143,634.5833333333334C494.5714285714286,624.1666666666666,517.5803571428571,640.8333333333334,529.0848214285714,649.1666666666666L540.5892857142857,657.5" stroke="gray" fill="none" stroke-dasharray="8,8" marker-end="url(#ONLY_ONE_END)" marker-start="url(#ONE_OR_MORE_START)"></path><path class="er relationshipLine" d="M399.21875,1304.1750275296708L411.2760416666667,1308.8958562747257C423.3333333333333,1313.6166850197806,447.4479166666667,1323.0583425098903,478.45373774509807,1227.7791712549451C509.45955882352945,1132.5,547.3566176470589,932.5,566.3051470588235,832.5L585.2536764705883,732.5" stroke="gray" fill="none" stroke-dasharray="8,8" marker-end="url(#ONLY_ONE_END)" marker-start="url(#ONE_OR_MORE_START)"></path><path class="er relationshipLine" d="M366.3952205882353,1245L383.9231004901961,1215.8333333333333C401.4509803921569,1186.6666666666667,436.50674019607845,1128.3333333333333,469.13422947303917,1117.9166666666667C501.76171875,1107.5,531.9609375,1145,547.060546875,1163.75L562.16015625,1182.5" stroke="gray" fill="none" marker-end="url(#ONLY_ONE_END)" marker-start="url(#ONE_OR_MORE_START)"></path><path class="er relationshipLine" d="M365.1432291666667,320L382.8797743055556,351.25C400.6163194444445,382.5,436.08940972222223,445,469.93220486111113,501.25C503.77500000000003,557.5,535.9875000000001,607.5,552.09375,632.5L568.2,657.5" stroke="gray" fill="none" stroke-dasharray="8,8" marker-end="url(#ONLY_ONE_END)" marker-start="url(#ONLY_ONE_START)"></path><path class="er relationshipLine" d="M382.1703125,320L397.0690104166667,334.5833333333333C411.96770833333335,349.1666666666667,441.7651041666666,378.3333333333333,469.24680989583334,403.3333333333333C496.728515625,428.3333333333333,521.89453125,449.1666666666667,534.4775390625,459.5833333333333L547.060546875,470" stroke="gray" fill="none" marker-end="url(#ONLY_ONE_END)" marker-start="url(#ONLY_ONE_START)"></path><path class="er relationshipLine" d="M393.859375,262.9233451608956L406.8098958333333,257.8527876340797C419.7604166666667,252.78223010726376,445.6614583333333,242.6411150536319,468.06640625,237.57055752681595C490.4713541666667,232.5,509.3802083333333,232.5,518.8346354166666,232.5L528.2890625,232.5" stroke="gray" fill="none" marker-end="url(#ONLY_ONE_END)" marker-start="url(#ONLY_ONE_START)"></path><path class="er relationshipLine" d="M365.1432291666667,245L382.8797743055556,213.75C400.6163194444445,182.5,436.08940972222223,120,462.70746527777777,88.75C489.3255208333333,57.5,507.0885416666667,57.5,515.9700520833334,57.5L524.8515625,57.5" stroke="gray" fill="none" marker-end="url(#ONLY_ONE_END)" marker-start="url(#ONLY_ONE_START)"></path><g id="WEB_SERVER" transform="translate(36.3359375,720 )"><rect class="er entityBox" fill="honeydew" fill-opacity="100%" stroke="gray" x="0" y="0" width="113.484375" height="75"></rect><text class="er entityLabel" id="entity-WEB_SERVER" x="0" y="0" dominant-baseline="middle" text-anchor="middle" style="font-family: &quot;trebuchet ms&quot;, verdana, arial, sans-serif;; font-size: 12px" transform="translate(56.7421875,37.5)">WEB_SERVER</text></g><g id="STATIC_FILE_DIR" transform="translate(278.5625,895 )"><rect class="er entityBox" fill="honeydew" fill-opacity="100%" stroke="gray" x="0" y="0" width="130.59375" height="75"></rect><text class="er entityLabel" id="entity-STATIC_FILE_DIR" x="0" y="0" dominant-baseline="middle" text-anchor="middle" style="font-family: &quot;trebuchet ms&quot;, verdana, arial, sans-serif;; font-size: 12px" transform="translate(65.296875,37.5)">STATIC_FILE_DIR</text></g><g id="PYTHON_FLASK_APP" transform="translate(266.15625,720 )"><rect class="er entityBox" fill="honeydew" fill-opacity="100%" stroke="gray" x="0" y="0" width="155.40625" height="75"></rect><text class="er entityLabel" id="entity-PYTHON_FLASK_APP" x="0" y="0" dominant-baseline="middle" text-anchor="middle" style="font-family: &quot;trebuchet ms&quot;, verdana, arial, sans-serif;; font-size: 12px" transform="translate(77.703125,37.5)">PYTHON_FLASK_APP</text></g><g id="CHILL" transform="translate(293.859375,245 )"><rect class="er entityBox" fill="honeydew" fill-opacity="100%" stroke="gray" x="0" y="0" width="100" height="75"></rect><text class="er entityLabel" id="entity-CHILL" x="0" y="0" dominant-baseline="middle" text-anchor="middle" style="font-family: &quot;trebuchet ms&quot;, verdana, arial, sans-serif;; font-size: 12px" transform="translate(50,37.5)">CHILL</text></g><g id="CDN_WEB_SERVER" transform="translate(20,1070 )"><rect class="er entityBox" fill="honeydew" fill-opacity="100%" stroke="gray" x="0" y="0" width="146.15625" height="75"></rect><text class="er entityLabel" id="entity-CDN_WEB_SERVER" x="0" y="0" dominant-baseline="middle" text-anchor="middle" style="font-family: &quot;trebuchet ms&quot;, verdana, arial, sans-serif;; font-size: 12px" transform="translate(73.078125,37.5)">CDN_WEB_SERVER</text></g><g id="S3_BUCKET" transform="translate(293.5078125,1070 )"><rect class="er entityBox" fill="honeydew" fill-opacity="100%" stroke="gray" x="0" y="0" width="100.703125" height="75"></rect><text class="er entityLabel" id="entity-S3_BUCKET" x="0" y="0" dominant-baseline="middle" text-anchor="middle" style="font-family: &quot;trebuchet ms&quot;, verdana, arial, sans-serif;; font-size: 12px" transform="translate(50.3515625,37.5)">S3_BUCKET</text></g><g id="REDIS" transform="translate(542.359375,1182.5 )"><rect class="er entityBox" fill="honeydew" fill-opacity="100%" stroke="gray" x="0" y="0" width="100" height="75"></rect><text class="er entityLabel" id="entity-REDIS" x="0" y="0" dominant-baseline="middle" text-anchor="middle" style="font-family: &quot;trebuchet ms&quot;, verdana, arial, sans-serif;; font-size: 12px" transform="translate(50,37.5)">REDIS</text></g><g id="QUERIES_DIR" transform="translate(536.5078125,470 )"><rect class="er entityBox" fill="honeydew" fill-opacity="100%" stroke="gray" x="0" y="0" width="111.703125" height="75"></rect><text class="er entityLabel" id="entity-QUERIES_DIR" x="0" y="0" dominant-baseline="middle" text-anchor="middle" style="font-family: &quot;trebuchet ms&quot;, verdana, arial, sans-serif;; font-size: 12px" transform="translate(55.8515625,37.5)">QUERIES_DIR</text></g><g id="SQLITE_DATABASE" transform="translate(521.5625,657.5 )"><rect class="er entityBox" fill="honeydew" fill-opacity="100%" stroke="gray" x="0" y="0" width="141.59375" height="75"></rect><text class="er entityLabel" id="entity-SQLITE_DATABASE" x="0" y="0" dominant-baseline="middle" text-anchor="middle" style="font-family: &quot;trebuchet ms&quot;, verdana, arial, sans-serif;; font-size: 12px" transform="translate(70.796875,37.5)">SQLITE_DATABASE</text></g><g id="PYTHON_APP" transform="translate(288.5,1245 )"><rect class="er entityBox" fill="honeydew" fill-opacity="100%" stroke="gray" x="0" y="0" width="110.71875" height="75"></rect><text class="er entityLabel" id="entity-PYTHON_APP" x="0" y="0" dominant-baseline="middle" text-anchor="middle" style="font-family: &quot;trebuchet ms&quot;, verdana, arial, sans-serif;; font-size: 12px" transform="translate(55.359375,37.5)">PYTHON_APP</text></g><g id="TEMPLATES_DIR" transform="translate(528.2890625,195 )"><rect class="er entityBox" fill="honeydew" fill-opacity="100%" stroke="gray" x="0" y="0" width="128.140625" height="75"></rect><text class="er entityLabel" id="entity-TEMPLATES_DIR" x="0" y="0" dominant-baseline="middle" text-anchor="middle" style="font-family: &quot;trebuchet ms&quot;, verdana, arial, sans-serif;; font-size: 12px" transform="translate(64.0703125,37.5)">TEMPLATES_DIR</text></g><g id="DOCUMENTS_DIR" transform="translate(524.8515625,20 )"><rect class="er entityBox" fill="honeydew" fill-opacity="100%" stroke="gray" x="0" y="0" width="135.015625" height="75"></rect><text class="er entityLabel" id="entity-DOCUMENTS_DIR" x="0" y="0" dominant-baseline="middle" text-anchor="middle" style="font-family: &quot;trebuchet ms&quot;, verdana, arial, sans-serif;; font-size: 12px" transform="translate(67.5078125,37.5)">DOCUMENTS_DIR</text></g><rect class="er relationshipLabelBox" x="137.02340698242188" y="876.531982421875" width="96.390625" height="14.015625" fill="white" fill-opacity="85%"></rect><text class="er relationshipLabel" id="rel1" x="185.21871948242188" y="883.539794921875" text-anchor="middle" dominant-baseline="middle" style="font-family: &quot;trebuchet ms&quot;, verdana, arial, sans-serif;; font-size: 12px">proxies requests</text><rect class="er relationshipLabelBox" x="159.79296875" y="750.4921875" width="96.390625" height="14.015625" fill="white" fill-opacity="85%"></rect><text class="er relationshipLabel" id="rel2" x="207.98828125" y="757.5" text-anchor="middle" dominant-baseline="middle" style="font-family: &quot;trebuchet ms&quot;, verdana, arial, sans-serif;; font-size: 12px">proxies requests</text><rect class="er relationshipLabelBox" x="119.69352722167969" y="471.0978698730469" width="96.375" height="14.015625" fill="white" fill-opacity="85%"></rect><text class="er relationshipLabel" id="rel3" x="167.8810272216797" y="478.1056823730469" text-anchor="middle" dominant-baseline="middle" style="font-family: &quot;trebuchet ms&quot;, verdana, arial, sans-serif;; font-size: 12px">proxies requests</text><rect class="er relationshipLabelBox" x="181.63671875" y="1100.4921875" width="96.390625" height="14.015625" fill="white" fill-opacity="85%"></rect><text class="er relationshipLabel" id="rel4" x="229.83203125" y="1107.5" text-anchor="middle" dominant-baseline="middle" style="font-family: &quot;trebuchet ms&quot;, verdana, arial, sans-serif;; font-size: 12px">proxies requests</text><rect class="er relationshipLabelBox" x="476.143310546875" y="985.616455078125" width="0" height="0" fill="white" fill-opacity="85%"></rect><text class="er relationshipLabel" id="rel5" x="476.143310546875" y="985.616455078125" text-anchor="middle" dominant-baseline="middle" style="font-family: &quot;trebuchet ms&quot;, verdana, arial, sans-serif;; font-size: 12px"></text><rect class="er relationshipLabelBox" x="515.304931640625" y="727.2925415039062" width="0" height="0" fill="white" fill-opacity="85%"></rect><text class="er relationshipLabel" id="rel6" x="515.304931640625" y="727.2925415039062" text-anchor="middle" dominant-baseline="middle" style="font-family: &quot;trebuchet ms&quot;, verdana, arial, sans-serif;; font-size: 12px"></text><rect class="er relationshipLabelBox" x="454.8088073730469" y="735.0323486328125" width="36.015625" height="14.015625" fill="white" fill-opacity="85%"></rect><text class="er relationshipLabel" id="rel7" x="472.8166198730469" y="742.0401611328125" text-anchor="middle" dominant-baseline="middle" style="font-family: &quot;trebuchet ms&quot;, verdana, arial, sans-serif;; font-size: 12px">writes</text><rect class="er relationshipLabelBox" x="431.3076477050781" y="638.65185546875" width="32.359375" height="14.015625" fill="white" fill-opacity="85%"></rect><text class="er relationshipLabel" id="rel8" x="447.4873352050781" y="645.65966796875" text-anchor="middle" dominant-baseline="middle" style="font-family: &quot;trebuchet ms&quot;, verdana, arial, sans-serif;; font-size: 12px">reads</text><rect class="er relationshipLabelBox" x="507.91033935546875" y="1038.123046875" width="32.359375" height="14.015625" fill="white" fill-opacity="85%"></rect><text class="er relationshipLabel" id="rel9" x="524.0900268554688" y="1045.130859375" text-anchor="middle" dominant-baseline="middle" style="font-family: &quot;trebuchet ms&quot;, verdana, arial, sans-serif;; font-size: 12px">reads</text><rect class="er relationshipLabelBox" x="449.4051818847656" y="1129.3170166015625" width="0" height="0" fill="white" fill-opacity="85%"></rect><text class="er relationshipLabel" id="rel10" x="449.4051818847656" y="1129.3170166015625" text-anchor="middle" dominant-baseline="middle" style="font-family: &quot;trebuchet ms&quot;, verdana, arial, sans-serif;; font-size: 12px"></text><rect class="er relationshipLabelBox" x="447.3836669921875" y="483.61627197265625" width="32.359375" height="14.015625" fill="white" fill-opacity="85%"></rect><text class="er relationshipLabel" id="rel11" x="463.5633544921875" y="490.62408447265625" text-anchor="middle" dominant-baseline="middle" style="font-family: &quot;trebuchet ms&quot;, verdana, arial, sans-serif;; font-size: 12px">reads</text><rect class="er relationshipLabelBox" x="462.5882568359375" y="397.2365417480469" width="0" height="0" fill="white" fill-opacity="85%"></rect><text class="er relationshipLabel" id="rel12" x="462.5882568359375" y="397.2365417480469" text-anchor="middle" dominant-baseline="middle" style="font-family: &quot;trebuchet ms&quot;, verdana, arial, sans-serif;; font-size: 12px"></text><rect class="er relationshipLabelBox" x="420.0281982421875" y="232.72349548339844" width="78.703125" height="14.015625" fill="white" fill-opacity="85%"></rect><text class="er relationshipLabel" id="rel13" x="459.3797607421875" y="239.73130798339844" text-anchor="middle" dominant-baseline="middle" style="font-family: &quot;trebuchet ms&quot;, verdana, arial, sans-serif;; font-size: 12px">creates HTML</text><rect class="er relationshipLabelBox" x="390.89373779296875" y="127.07225036621094" width="78.703125" height="14.015625" fill="white" fill-opacity="85%"></rect><text class="er relationshipLabel" id="rel14" x="430.24530029296875" y="134.08006286621094" text-anchor="middle" dominant-baseline="middle" style="font-family: &quot;trebuchet ms&quot;, verdana, arial, sans-serif;; font-size: 12px">creates HTML</text></svg>