<svg id="mermaid-1657198190101" width="100%" xmlns="http://www.w3.org/2000/svg" height="1300" style="max-width: 643.129px; background-color: white;" viewBox="20 20 643.12890625 1300"><style>#mermaid-1657198190101 {font-family:"trebuchet ms",verdana,arial,sans-serif;font-size:16px;fill:#c28265;}#mermaid-1657198190101 .error-icon{fill:hsl(180, 0%, 19.9019607843%);}#mermaid-1657198190101 .error-text{fill:rgb(204.25, 204.25, 204.25);stroke:rgb(204.25, 204.25, 204.25);}#mermaid-1657198190101 .edge-thickness-normal{stroke-width:2px;}#mermaid-1657198190101 .edge-thickness-thick{stroke-width:3.5px;}#mermaid-1657198190101 .edge-pattern-solid{stroke-dasharray:0;}#mermaid-1657198190101 .edge-pattern-dashed{stroke-dasharray:3;}#mermaid-1657198190101 .edge-pattern-dotted{stroke-dasharray:2;}#mermaid-1657198190101 .marker{fill:#3d91cc;stroke:#3d91cc;}#mermaid-1657198190101 .marker.cross{stroke:#3d91cc;}#mermaid-1657198190101 svg{font-family:"trebuchet ms",verdana,arial,sans-serif;font-size:16px;}#mermaid-1657198190101 .entityBox{fill:#262626;stroke:#3d91cc;}#mermaid-1657198190101 .attributeBoxOdd{fill:#ffffff;stroke:#3d91cc;}#mermaid-1657198190101 .attributeBoxEven{fill:#f2f2f2;stroke:#3d91cc;}#mermaid-1657198190101 .relationshipLabelBox{fill:hsl(180, 0%, 19.9019607843%);opacity:0.7;background-color:hsl(180, 0%, 19.9019607843%);}#mermaid-1657198190101 .relationshipLabelBox rect{opacity:0.5;}#mermaid-1657198190101 .relationshipLine{stroke:#3d91cc;}#mermaid-1657198190101 text.er.relationshipLabel{font-weight:bold;}#mermaid-1657198190101 rect.er.relationshipLabelBox{opacity:0;}#mermaid-1657198190101 :root{--mermaid-font-family:"trebuchet ms",verdana,arial,sans-serif;}</style><g></g><defs><marker id="ONLY_ONE_START" refX="0" refY="9" markerWidth="18" markerHeight="18" orient="auto"><path stroke="gray" fill="none" d="M9,0 L9,18 M15,0 L15,18"></path></marker></defs><defs><marker id="ONLY_ONE_END" refX="18" refY="9" markerWidth="18" markerHeight="18" orient="auto"><path stroke="gray" fill="none" d="M3,0 L3,18 M9,0 L9,18"></path></marker></defs><defs><marker id="ZERO_OR_ONE_START" refX="0" refY="9" markerWidth="30" markerHeight="18" orient="auto"><circle stroke="gray" fill="white" cx="21" cy="9" r="6"></circle><path stroke="gray" fill="none" d="M9,0 L9,18"></path></marker></defs><defs><marker id="ZERO_OR_ONE_END" refX="30" refY="9" markerWidth="30" markerHeight="18" orient="auto"><circle stroke="gray" fill="white" cx="9" cy="9" r="6"></circle><path stroke="gray" fill="none" d="M21,0 L21,18"></path></marker></defs><defs><marker id="ONE_OR_MORE_START" refX="18" refY="18" markerWidth="45" markerHeight="36" orient="auto"><path stroke="gray" fill="none" d="M0,18 Q 18,0 36,18 Q 18,36 0,18 M42,9 L42,27"></path></marker></defs><defs><marker id="ONE_OR_MORE_END" refX="27" refY="18" markerWidth="45" markerHeight="36" orient="auto"><path stroke="gray" fill="none" d="M3,9 L3,27 M9,18 Q27,0 45,18 Q27,36 9,18"></path></marker></defs><defs><marker id="ZERO_OR_MORE_START" refX="18" refY="18" markerWidth="57" markerHeight="36" orient="auto"><circle stroke="gray" fill="white" cx="48" cy="18" r="6"></circle><path stroke="gray" fill="none" d="M0,18 Q18,0 36,18 Q18,36 0,18"></path></marker></defs><defs><marker id="ZERO_OR_MORE_END" refX="39" refY="18" markerWidth="57" markerHeight="36" orient="auto"><circle stroke="gray" fill="white" cx="9" cy="18" r="6"></circle><path stroke="gray" fill="none" d="M21,18 Q39,0 57,18 Q39,36 21,18"></path></marker></defs><path class="er relationshipLine" d="M119.44489397321428,795L135.5615001860119,817.9166666666666C151.67810639880952,840.8333333333334,183.91131882440473,886.6666666666666,210.4291294642857,909.5833333333334C236.94694010416666,932.5,257.7493489583333,932.5,268.1505533854167,932.5L278.5517578125,932.5" stroke="gray" fill="none" marker-end="url(#ONE_OR_MORE_END)" marker-start="url(#ONLY_ONE_START)"></path><path class="er relationshipLine" d="M149.80859375,757.5L160.86458333333334,757.5C171.92057291666666,757.5,194.03255208333334,757.5,213.421875,757.5C232.81119791666666,757.5,249.47786458333334,757.5,257.8111979166667,757.5L266.14453125,757.5" stroke="gray" fill="none" marker-end="url(#ONE_OR_MORE_END)" marker-start="url(#ONLY_ONE_START)"></path><path class="er relationshipLine" d="M102.78849712171052,720L121.68116947642544,647.0833333333334C140.57384183114036,574.1666666666666,178.35918654057016,428.3333333333333,210.20107764528507,355.4166666666667C242.04296875,282.5,267.94140625,282.5,280.890625,282.5L293.83984375,282.5" stroke="gray" fill="none" marker-end="url(#ONLY_ONE_END)" marker-start="url(#ONLY_ONE_START)"></path><path class="er relationshipLine" d="M166.14453125,1107.5L174.47786458333334,1107.5C182.81119791666666,1107.5,199.47786458333334,1107.5,220.70247395833334,1107.5C241.92708333333334,1107.5,267.7096354166667,1107.5,280.6009114583333,1107.5L293.4921875,1107.5" stroke="gray" fill="none" marker-end="url(#ONLY_ONE_END)" marker-start="url(#ONLY_ONE_START)"></path><path class="er relationshipLine" d="M366.3743106617647,795L383.9011182598039,824.1666666666666C401.4279258578431,853.3333333333334,436.48154105392155,911.6666666666666,471.1212392769608,976.25C505.7609375,1040.8333333333333,539.98671875,1111.6666666666667,557.099609375,1147.0833333333333L574.2125,1182.5" stroke="gray" fill="none" marker-end="url(#ONLY_ONE_END)" marker-start="url(#ONE_OR_MORE_START)"></path><path class="er relationshipLine" d="M386.4049479166667,795L400.59331597222223,807.5C414.7816840277778,820,443.1584201388889,845,475.3968959530651,803.3333333333334C507.6353717672414,761.6666666666666,543.7355872844828,653.3333333333334,561.7856950431035,599.1666666666666L579.8358028017242,545" stroke="gray" fill="none" marker-end="url(#ONLY_ONE_END)" marker-start="url(#ONE_OR_MORE_START)"></path><path class="er relationshipLine" d="M421.53515625,749.8944631385745L429.8684895833333,749.0787192821454C438.2018229166667,748.2629754257163,454.8684895833333,746.6314877128581,471.53515625,742.3664272522814C488.2018229166667,738.1013667917044,504.8684895833333,731.2027335834088,513.2018229166666,727.753416979261L521.53515625,724.3041003751132" stroke="gray" fill="none" marker-end="url(#ONLY_ONE_END)" marker-start="url(#ONLY_ONE_START)"></path><path class="er relationshipLine" d="M375.763671875,720L391.7255859375,701.25C407.6875,682.5,439.611328125,645,467.0777064732143,634.5833333333334C494.5440848214286,624.1666666666666,517.5530133928571,640.8333333333334,529.0574776785714,649.1666666666666L540.5619419642857,657.5" stroke="gray" fill="none" stroke-dasharray="8,8" marker-end="url(#ONLY_ONE_END)" marker-start="url(#ONE_OR_MORE_START)"></path><path class="er relationshipLine" d="M399.19140625,1304.1732945855001L411.2486979166667,1308.8944121545835C423.3059895833333,1313.6155297236667,447.4205729166667,1323.0577648618334,478.42639399509807,1227.7788824309166C509.43221507352945,1132.5,547.3292738970589,932.5,566.2778033088235,832.5L585.2263327205883,732.5" stroke="gray" fill="none" stroke-dasharray="8,8" marker-end="url(#ONLY_ONE_END)" marker-start="url(#ONE_OR_MORE_START)"></path><path class="er relationshipLine" d="M366.3743106617647,1245L383.9011182598039,1215.8333333333333C401.4279258578431,1186.6666666666667,436.48154105392155,1128.3333333333333,469.10795802696083,1117.9166666666667C501.734375,1107.5,531.93359375,1145,547.033203125,1163.75L562.1328125,1182.5" stroke="gray" fill="none" marker-end="url(#ONLY_ONE_END)" marker-start="url(#ONE_OR_MORE_START)"></path><path class="er relationshipLine" d="M365.1223958333333,320L382.85785590277777,351.25C400.5933159722222,382.5,436.0642361111111,445,469.90594618055565,501.25C503.74765625000003,557.5,535.9601562500001,607.5,552.06640625,632.5L568.17265625,657.5" stroke="gray" fill="none" stroke-dasharray="8,8" marker-end="url(#ONLY_ONE_END)" marker-start="url(#ONLY_ONE_START)"></path><path class="er relationshipLine" d="M382.1484375,320L397.0462239583333,334.5833333333333C411.9440104166667,349.1666666666667,441.7395833333333,378.3333333333333,469.2203776041667,403.3333333333333C496.701171875,428.3333333333333,521.8671875,449.1666666666667,534.4501953125,459.5833333333333L547.033203125,470" stroke="gray" fill="none" marker-end="url(#ONLY_ONE_END)" marker-start="url(#ONLY_ONE_START)"></path><path class="er relationshipLine" d="M393.83984375,262.922147445702L406.7890625,257.85178953808503C419.73828125,252.781431630468,445.63671875,242.640715815234,468.041015625,237.570357907617C490.4453125,232.5,509.35546875,232.5,518.810546875,232.5L528.265625,232.5" stroke="gray" fill="none" marker-end="url(#ONLY_ONE_END)" marker-start="url(#ONLY_ONE_START)"></path><path class="er relationshipLine" d="M365.1223958333333,245L382.85785590277777,213.75C400.5933159722222,182.5,436.0642361111111,120,462.6820203993056,88.75C489.2998046875,57.5,507.064453125,57.5,515.94677734375,57.5L524.8291015625,57.5" stroke="gray" fill="none" marker-end="url(#ONLY_ONE_END)" marker-start="url(#ONLY_ONE_START)"></path><g id="WEB_SERVER" transform="translate(36.3359375,720 )"><rect class="er entityBox" fill="honeydew" fill-opacity="100%" stroke="gray" x="0" y="0" width="113.47265625" height="75"></rect><text class="er entityLabel" id="entity-WEB_SERVER" x="0" y="0" dominant-baseline="middle" text-anchor="middle" style="font-family: &quot;trebuchet ms&quot;, verdana, arial, sans-serif;; font-size: 12px" transform="translate(56.736328125,37.5)">WEB_SERVER</text></g><g id="STATIC_FILE_DIR" transform="translate(278.5517578125,895 )"><rect class="er entityBox" fill="honeydew" fill-opacity="100%" stroke="gray" x="0" y="0" width="130.576171875" height="75"></rect><text class="er entityLabel" id="entity-STATIC_FILE_DIR" x="0" y="0" dominant-baseline="middle" text-anchor="middle" style="font-family: &quot;trebuchet ms&quot;, verdana, arial, sans-serif;; font-size: 12px" transform="translate(65.2880859375,37.5)">STATIC_FILE_DIR</text></g><g id="PYTHON_FLASK_APP" transform="translate(266.14453125,720 )"><rect class="er entityBox" fill="honeydew" fill-opacity="100%" stroke="gray" x="0" y="0" width="155.390625" height="75"></rect><text class="er entityLabel" id="entity-PYTHON_FLASK_APP" x="0" y="0" dominant-baseline="middle" text-anchor="middle" style="font-family: &quot;trebuchet ms&quot;, verdana, arial, sans-serif;; font-size: 12px" transform="translate(77.6953125,37.5)">PYTHON_FLASK_APP</text></g><g id="CHILL" transform="translate(293.83984375,245 )"><rect class="er entityBox" fill="honeydew" fill-opacity="100%" stroke="gray" x="0" y="0" width="100" height="75"></rect><text class="er entityLabel" id="entity-CHILL" x="0" y="0" dominant-baseline="middle" text-anchor="middle" style="font-family: &quot;trebuchet ms&quot;, verdana, arial, sans-serif;; font-size: 12px" transform="translate(50,37.5)">CHILL</text></g><g id="CDN_WEB_SERVER" transform="translate(20,1070 )"><rect class="er entityBox" fill="honeydew" fill-opacity="100%" stroke="gray" x="0" y="0" width="146.14453125" height="75"></rect><text class="er entityLabel" id="entity-CDN_WEB_SERVER" x="0" y="0" dominant-baseline="middle" text-anchor="middle" style="font-family: &quot;trebuchet ms&quot;, verdana, arial, sans-serif;; font-size: 12px" transform="translate(73.072265625,37.5)">CDN_WEB_SERVER</text></g><g id="S3_BUCKET" transform="translate(293.4921875,1070 )"><rect class="er entityBox" fill="honeydew" fill-opacity="100%" stroke="gray" x="0" y="0" width="100.6953125" height="75"></rect><text class="er entityLabel" id="entity-S3_BUCKET" x="0" y="0" dominant-baseline="middle" text-anchor="middle" style="font-family: &quot;trebuchet ms&quot;, verdana, arial, sans-serif;; font-size: 12px" transform="translate(50.34765625,37.5)">S3_BUCKET</text></g><g id="REDIS" transform="translate(542.33203125,1182.5 )"><rect class="er entityBox" fill="honeydew" fill-opacity="100%" stroke="gray" x="0" y="0" width="100" height="75"></rect><text class="er entityLabel" id="entity-REDIS" x="0" y="0" dominant-baseline="middle" text-anchor="middle" style="font-family: &quot;trebuchet ms&quot;, verdana, arial, sans-serif;; font-size: 12px" transform="translate(50,37.5)">REDIS</text></g><g id="QUERIES_DIR" transform="translate(536.4892578125,470 )"><rect class="er entityBox" fill="honeydew" fill-opacity="100%" stroke="gray" x="0" y="0" width="111.685546875" height="75"></rect><text class="er entityLabel" id="entity-QUERIES_DIR" x="0" y="0" dominant-baseline="middle" text-anchor="middle" style="font-family: &quot;trebuchet ms&quot;, verdana, arial, sans-serif;; font-size: 12px" transform="translate(55.8427734375,37.5)">QUERIES_DIR</text></g><g id="SQLITE_DATABASE" transform="translate(521.53515625,657.5 )"><rect class="er entityBox" fill="honeydew" fill-opacity="100%" stroke="gray" x="0" y="0" width="141.59375" height="75"></rect><text class="er entityLabel" id="entity-SQLITE_DATABASE" x="0" y="0" dominant-baseline="middle" text-anchor="middle" style="font-family: &quot;trebuchet ms&quot;, verdana, arial, sans-serif;; font-size: 12px" transform="translate(70.796875,37.5)">SQLITE_DATABASE</text></g><g id="PYTHON_APP" transform="translate(288.48828125,1245 )"><rect class="er entityBox" fill="honeydew" fill-opacity="100%" stroke="gray" x="0" y="0" width="110.703125" height="75"></rect><text class="er entityLabel" id="entity-PYTHON_APP" x="0" y="0" dominant-baseline="middle" text-anchor="middle" style="font-family: &quot;trebuchet ms&quot;, verdana, arial, sans-serif;; font-size: 12px" transform="translate(55.3515625,37.5)">PYTHON_APP</text></g><g id="TEMPLATES_DIR" transform="translate(528.265625,195 )"><rect class="er entityBox" fill="honeydew" fill-opacity="100%" stroke="gray" x="0" y="0" width="128.1328125" height="75"></rect><text class="er entityLabel" id="entity-TEMPLATES_DIR" x="0" y="0" dominant-baseline="middle" text-anchor="middle" style="font-family: &quot;trebuchet ms&quot;, verdana, arial, sans-serif;; font-size: 12px" transform="translate(64.06640625,37.5)">TEMPLATES_DIR</text></g><g id="DOCUMENTS_DIR" transform="translate(524.8291015625,20 )"><rect class="er entityBox" fill="honeydew" fill-opacity="100%" stroke="gray" x="0" y="0" width="135.005859375" height="75"></rect><text class="er entityLabel" id="entity-DOCUMENTS_DIR" x="0" y="0" dominant-baseline="middle" text-anchor="middle" style="font-family: &quot;trebuchet ms&quot;, verdana, arial, sans-serif;; font-size: 12px" transform="translate(67.5029296875,37.5)">DOCUMENTS_DIR</text></g><rect class="er relationshipLabelBox" x="137.02552795410156" y="876.540283203125" width="96.3671875" height="14" fill="white" fill-opacity="85%"></rect><text class="er relationshipLabel" id="rel1" x="185.20912170410156" y="883.540283203125" text-anchor="middle" dominant-baseline="middle" style="font-family: &quot;trebuchet ms&quot;, verdana, arial, sans-serif;; font-size: 12px">proxies requests</text><rect class="er relationshipLabelBox" x="159.79296875" y="750.5" width="96.3671875" height="14" fill="white" fill-opacity="85%"></rect><text class="er relationshipLabel" id="rel2" x="207.9765625" y="757.5" text-anchor="middle" dominant-baseline="middle" style="font-family: &quot;trebuchet ms&quot;, verdana, arial, sans-serif;; font-size: 12px">proxies requests</text><rect class="er relationshipLabelBox" x="119.68702697753906" y="471.1084899902344" width="96.3671875" height="14" fill="white" fill-opacity="85%"></rect><text class="er relationshipLabel" id="rel3" x="167.87062072753906" y="478.1084899902344" text-anchor="middle" dominant-baseline="middle" style="font-family: &quot;trebuchet ms&quot;, verdana, arial, sans-serif;; font-size: 12px">proxies requests</text><rect class="er relationshipLabelBox" x="181.634765625" y="1100.5" width="96.3671875" height="14" fill="white" fill-opacity="85%"></rect><text class="er relationshipLabel" id="rel4" x="229.818359375" y="1107.5" text-anchor="middle" dominant-baseline="middle" style="font-family: &quot;trebuchet ms&quot;, verdana, arial, sans-serif;; font-size: 12px">proxies requests</text><rect class="er relationshipLabelBox" x="476.1174621582031" y="985.617431640625" width="0" height="0" fill="white" fill-opacity="85%"></rect><text class="er relationshipLabel" id="rel5" x="476.1174621582031" y="985.617431640625" text-anchor="middle" dominant-baseline="middle" style="font-family: &quot;trebuchet ms&quot;, verdana, arial, sans-serif;; font-size: 12px"></text><rect class="er relationshipLabelBox" x="515.278564453125" y="727.2907104492188" width="0" height="0" fill="white" fill-opacity="85%"></rect><text class="er relationshipLabel" id="rel6" x="515.278564453125" y="727.2907104492188" text-anchor="middle" dominant-baseline="middle" style="font-family: &quot;trebuchet ms&quot;, verdana, arial, sans-serif;; font-size: 12px"></text><rect class="er relationshipLabelBox" x="454.78533935546875" y="735.0401611328125" width="36.0078125" height="14" fill="white" fill-opacity="85%"></rect><text class="er relationshipLabel" id="rel7" x="472.78924560546875" y="742.0401611328125" text-anchor="middle" dominant-baseline="middle" style="font-family: &quot;trebuchet ms&quot;, verdana, arial, sans-serif;; font-size: 12px">writes</text><rect class="er relationshipLabelBox" x="431.2884216308594" y="638.6593017578125" width="32.34765625" height="14" fill="white" fill-opacity="85%"></rect><text class="er relationshipLabel" id="rel8" x="447.4622497558594" y="645.6593017578125" text-anchor="middle" dominant-baseline="middle" style="font-family: &quot;trebuchet ms&quot;, verdana, arial, sans-serif;; font-size: 12px">reads</text><rect class="er relationshipLabelBox" x="507.88897705078125" y="1038.1304931640625" width="32.34765625" height="14" fill="white" fill-opacity="85%"></rect><text class="er relationshipLabel" id="rel9" x="524.0628051757812" y="1045.1304931640625" text-anchor="middle" dominant-baseline="middle" style="font-family: &quot;trebuchet ms&quot;, verdana, arial, sans-serif;; font-size: 12px">reads</text><rect class="er relationshipLabelBox" x="449.38006591796875" y="1129.316650390625" width="0" height="0" fill="white" fill-opacity="85%"></rect><text class="er relationshipLabel" id="rel10" x="449.38006591796875" y="1129.316650390625" text-anchor="middle" dominant-baseline="middle" style="font-family: &quot;trebuchet ms&quot;, verdana, arial, sans-serif;; font-size: 12px"></text><rect class="er relationshipLabelBox" x="447.364013671875" y="483.6249084472656" width="32.34765625" height="14" fill="white" fill-opacity="85%"></rect><text class="er relationshipLabel" id="rel11" x="463.537841796875" y="490.6249084472656" text-anchor="middle" dominant-baseline="middle" style="font-family: &quot;trebuchet ms&quot;, verdana, arial, sans-serif;; font-size: 12px">reads</text><rect class="er relationshipLabelBox" x="462.5628967285156" y="397.2373046875" width="0" height="0" fill="white" fill-opacity="85%"></rect><text class="er relationshipLabel" id="rel12" x="462.5628967285156" y="397.2373046875" text-anchor="middle" dominant-baseline="middle" style="font-family: &quot;trebuchet ms&quot;, verdana, arial, sans-serif;; font-size: 12px"></text><rect class="er relationshipLabelBox" x="420.0065612792969" y="232.73011779785156" width="78.703125" height="14" fill="white" fill-opacity="85%"></rect><text class="er relationshipLabel" id="rel13" x="459.3581237792969" y="239.73011779785156" text-anchor="middle" dominant-baseline="middle" style="font-family: &quot;trebuchet ms&quot;, verdana, arial, sans-serif;; font-size: 12px">creates HTML</text><rect class="er relationshipLabelBox" x="390.870361328125" y="127.07833862304688" width="78.703125" height="14" fill="white" fill-opacity="85%"></rect><text class="er relationshipLabel" id="rel14" x="430.221923828125" y="134.07833862304688" text-anchor="middle" dominant-baseline="middle" style="font-family: &quot;trebuchet ms&quot;, verdana, arial, sans-serif;; font-size: 12px">creates HTML</text></svg>