<svg id="mermaid-1634218336812" width="100%" xmlns="http://www.w3.org/2000/svg" height="640" style="max-width: 302.53125px;" viewBox="0 0 302.53125 640"><style>#mermaid-1634218336812 {font-family:"trebuchet ms",verdana,arial,sans-serif;font-size:16px;fill:#c28265;}#mermaid-1634218336812 .error-icon{fill:hsl(180, 0%, 19.9019607843%);}#mermaid-1634218336812 .error-text{fill:rgb(204.25, 204.25, 204.25);stroke:rgb(204.25, 204.25, 204.25);}#mermaid-1634218336812 .edge-thickness-normal{stroke-width:2px;}#mermaid-1634218336812 .edge-thickness-thick{stroke-width:3.5px;}#mermaid-1634218336812 .edge-pattern-solid{stroke-dasharray:0;}#mermaid-1634218336812 .edge-pattern-dashed{stroke-dasharray:3;}#mermaid-1634218336812 .edge-pattern-dotted{stroke-dasharray:2;}#mermaid-1634218336812 .marker{fill:#3d91cc;stroke:#3d91cc;}#mermaid-1634218336812 .marker.cross{stroke:#3d91cc;}#mermaid-1634218336812 svg{font-family:"trebuchet ms",verdana,arial,sans-serif;font-size:16px;}#mermaid-1634218336812 .entityBox{fill:#262626;stroke:#3d91cc;}#mermaid-1634218336812 .attributeBoxOdd{fill:#ffffff;stroke:#3d91cc;}#mermaid-1634218336812 .attributeBoxEven{fill:#f2f2f2;stroke:#3d91cc;}#mermaid-1634218336812 .relationshipLabelBox{fill:hsl(180, 0%, 19.9019607843%);opacity:0.7;background-color:hsl(180, 0%, 19.9019607843%);}#mermaid-1634218336812 .relationshipLabelBox rect{opacity:0.5;}#mermaid-1634218336812 .relationshipLine{stroke:#3d91cc;}#mermaid-1634218336812 text.er.relationshipLabel{font-weight:bold;}#mermaid-1634218336812 rect.er.relationshipLabelBox{opacity:0;}#mermaid-1634218336812 :root{--mermaid-font-family:"trebuchet ms",verdana,arial,sans-serif;}</style><g></g><defs><marker id="ONLY_ONE_START" refX="0" refY="9" markerWidth="18" markerHeight="18" orient="auto"><path stroke="gray" fill="none" d="M9,0 L9,18 M15,0 L15,18"></path></marker></defs><defs><marker id="ONLY_ONE_END" refX="18" refY="9" markerWidth="18" markerHeight="18" orient="auto"><path stroke="gray" fill="none" d="M3,0 L3,18 M9,0 L9,18"></path></marker></defs><defs><marker id="ZERO_OR_ONE_START" refX="0" refY="9" markerWidth="30" markerHeight="18" orient="auto"><circle stroke="gray" fill="white" cx="21" cy="9" r="6"></circle><path stroke="gray" fill="none" d="M9,0 L9,18"></path></marker></defs><defs><marker id="ZERO_OR_ONE_END" refX="30" refY="9" markerWidth="30" markerHeight="18" orient="auto"><circle stroke="gray" fill="white" cx="9" cy="9" r="6"></circle><path stroke="gray" fill="none" d="M21,0 L21,18"></path></marker></defs><defs><marker id="ONE_OR_MORE_START" refX="18" refY="18" markerWidth="45" markerHeight="36" orient="auto"><path stroke="gray" fill="none" d="M0,18 Q 18,0 36,18 Q 18,36 0,18 M42,9 L42,27"></path></marker></defs><defs><marker id="ONE_OR_MORE_END" refX="27" refY="18" markerWidth="45" markerHeight="36" orient="auto"><path stroke="gray" fill="none" d="M3,9 L3,27 M9,18 Q27,0 45,18 Q27,36 9,18"></path></marker></defs><defs><marker id="ZERO_OR_MORE_START" refX="18" refY="18" markerWidth="57" markerHeight="36" orient="auto"><circle stroke="gray" fill="white" cx="48" cy="18" r="6"></circle><path stroke="gray" fill="none" d="M0,18 Q18,0 36,18 Q18,36 0,18"></path></marker></defs><defs><marker id="ZERO_OR_MORE_END" refX="39" refY="18" markerWidth="57" markerHeight="36" orient="auto"><circle stroke="gray" fill="white" cx="9" cy="18" r="6"></circle><path stroke="gray" fill="none" d="M21,18 Q39,0 57,18 Q39,36 21,18"></path></marker></defs><path class="er relationshipLine" d="M151.265625,95L151.265625,103.33333333333333C151.265625,111.66666666666667,151.265625,128.33333333333334,151.265625,145C151.265625,161.66666666666666,151.265625,178.33333333333334,151.265625,186.66666666666666L151.265625,195" stroke="gray" fill="none" marker-end="url(#ONLY_ONE_END)" marker-start="url(#ONLY_ONE_START)"></path><path class="er relationshipLine" d="M151.265625,270L151.265625,278.3333333333333C151.265625,286.6666666666667,151.265625,303.3333333333333,151.265625,320C151.265625,336.6666666666667,151.265625,353.3333333333333,151.265625,361.6666666666667L151.265625,370" stroke="gray" fill="none" marker-end="url(#ONE_OR_MORE_END)" marker-start="url(#ONLY_ONE_START)"></path><path class="er relationshipLine" d="M151.265625,445L151.265625,453.3333333333333C151.265625,461.6666666666667,151.265625,478.3333333333333,151.265625,495C151.265625,511.6666666666667,151.265625,528.3333333333334,151.265625,536.6666666666666L151.265625,545" stroke="gray" fill="none" marker-end="url(#ONLY_ONE_END)" marker-start="url(#ONE_OR_MORE_START)"></path><g id="NGINX_WEB_SERVER_LEGACY_CACHE" transform="translate(20.328125,20 )"><rect class="er entityBox" fill="honeydew" fill-opacity="100%" stroke="gray" x="0" y="0" width="261.875" height="75"></rect><text class="er entityLabel" id="entity-NGINX_WEB_SERVER_LEGACY_CACHE" x="0" y="0" dominant-baseline="middle" text-anchor="middle" style="font-family: &quot;trebuchet ms&quot;, verdana, arial, sans-serif;; font-size: 12px" transform="translate(130.9375,37.5)">NGINX_WEB_SERVER_LEGACY_CACHE</text></g><g id="NGINX_WEB_SERVER_LEGACY_ORIGIN" transform="translate(20,195 )"><rect class="er entityBox" fill="honeydew" fill-opacity="100%" stroke="gray" x="0" y="0" width="262.53125" height="75"></rect><text class="er entityLabel" id="entity-NGINX_WEB_SERVER_LEGACY_ORIGIN" x="0" y="0" dominant-baseline="middle" text-anchor="middle" style="font-family: &quot;trebuchet ms&quot;, verdana, arial, sans-serif;; font-size: 12px" transform="translate(131.265625,37.5)">NGINX_WEB_SERVER_LEGACY_ORIGIN</text></g><g id="ROUTE_NEWAPI" transform="translate(88.46875,370 )"><rect class="er entityBox" fill="honeydew" fill-opacity="100%" stroke="gray" x="0" y="0" width="125.59375" height="75"></rect><text class="er entityLabel" id="entity-ROUTE_NEWAPI" x="0" y="0" dominant-baseline="middle" text-anchor="middle" style="font-family: &quot;trebuchet ms&quot;, verdana, arial, sans-serif;; font-size: 12px" transform="translate(62.796875,37.5)">ROUTE_NEWAPI</text></g><g id="API" transform="translate(101.265625,545 )"><rect class="er entityBox" fill="honeydew" fill-opacity="100%" stroke="gray" x="0" y="0" width="100" height="75"></rect><text class="er entityLabel" id="entity-API" x="0" y="0" dominant-baseline="middle" text-anchor="middle" style="font-family: &quot;trebuchet ms&quot;, verdana, arial, sans-serif;; font-size: 12px" transform="translate(50,37.5)">API</text></g><rect class="er relationshipLabelBox" x="95.578125" y="137.9921875" width="111.375" height="14.015625" fill="white" fill-opacity="85%"></rect><text class="er relationshipLabel" id="rel1" x="151.265625" y="145" text-anchor="middle" dominant-baseline="middle" style="font-family: &quot;trebuchet ms&quot;, verdana, arial, sans-serif;; font-size: 12px">Proxies requests to</text><rect class="er relationshipLabelBox" x="129.421875" y="312.9921875" width="43.6875" height="14.015625" fill="white" fill-opacity="85%"></rect><text class="er relationshipLabel" id="rel2" x="151.265625" y="320" text-anchor="middle" dominant-baseline="middle" style="font-family: &quot;trebuchet ms&quot;, verdana, arial, sans-serif;; font-size: 12px">Defines</text><rect class="er relationshipLabelBox" x="95.578125" y="487.9921875" width="111.375" height="14.015625" fill="white" fill-opacity="85%"></rect><text class="er relationshipLabel" id="rel3" x="151.265625" y="495" text-anchor="middle" dominant-baseline="middle" style="font-family: &quot;trebuchet ms&quot;, verdana, arial, sans-serif;; font-size: 12px">Proxies requests to</text></svg>